<svg width="205" height="297" viewBox="0 0 205 297" fill="none" xmlns="http://www.w3.org/2000/svg">
<path d="M204 182.191C204.008 179.923 203.271 178.855 200.811 178.864C195.178 178.864 189.545 178.648 183.92 178.499C182.727 178.466 181.294 178.483 181.037 179.799C180.449 182.862 179.032 183.4 176.473 181.868C176.133 181.67 175.57 181.868 175.114 181.868C150.85 181.868 126.587 181.868 102.323 181.868V181.752C77.9436 181.752 53.5722 181.777 29.1926 181.711C26.8731 181.711 25.7382 182.621 25.5063 184.798C25.2743 186.975 25.4317 189.07 27.9832 189.823C28.9524 190.112 30.0293 190.079 31.0565 190.079C79.1282 190.104 127.192 190.121 175.263 190.121C175.942 190.121 176.688 190.129 177.284 189.872C178.237 189.459 179.032 188.085 180.134 189.599C180.83 190.551 180.697 191.536 180.159 192.513C179.364 193.953 178.08 193.928 176.879 193.374C175.114 192.554 173.292 192.687 171.461 192.687C125.121 192.72 78.772 192.753 32.4317 192.786C31.1642 192.786 29.9051 192.786 28.6376 192.861C26.5666 192.968 25.5974 194.152 25.4069 196.172C25.0672 199.789 26.4258 201.188 30.5181 201.188C72.4927 201.221 114.467 201.303 156.434 201.204C163.517 201.188 170.657 202.073 177.723 200.492C179.77 200.037 180.25 201.85 180.416 203.315C180.664 205.475 180.59 207.677 180.648 209.862C180.739 213.082 182.172 214.953 185.577 215.325C190.63 215.872 195.683 215.557 200.736 215.557C203.395 215.557 204.017 213.513 204.008 211.195C203.984 201.527 203.959 191.859 204.008 182.199L204 182.191ZM191.591 193.241C189.437 193.804 187.681 193.068 187.126 191.255C186.281 188.49 187.383 185.725 189.039 183.565C190.174 182.092 191.881 183.085 193.364 184.087C187.142 186.321 186.322 187.331 191.591 193.233V193.241Z" fill="#E3351E"/>
<path d="M124.143 269.186C124.507 262.713 122.171 260.693 115.669 261.695C111.054 262.407 109.48 261.124 109.456 256.464C109.414 248.418 109.447 240.372 109.447 232.327C109.48 232.327 109.514 232.327 109.547 232.327C109.547 225.084 109.514 217.842 109.555 210.599C109.596 203.53 109.621 203.53 102.704 203.323C96.5658 203.133 96.3255 203.29 96.4498 209.564C96.7563 224.96 96.0108 240.364 96.6321 255.76C96.8226 260.371 95.1741 261.869 90.4274 261.894C88.1327 261.902 85.8298 261.861 83.5352 261.91C82.0772 261.943 80.5695 262.407 80.2713 263.946C79.5423 267.671 78.6808 271.818 80.992 274.988C86.6251 282.686 93.7327 288.315 104.063 287.587C108.321 287.289 112.554 287.404 116.803 287.504C123.091 287.661 125.137 285.468 124.483 279.16C124.135 275.833 123.952 272.53 124.143 269.186ZM120.39 282.165C120.39 282.844 120.399 283.638 119.479 283.704C118.767 283.754 118.593 283.125 118.51 282.546C117.797 277.695 117.077 272.853 116.406 267.994C116.24 266.786 116.431 265.618 118.005 265.519C119.562 265.42 120.341 266.289 120.366 267.787C120.407 270.295 120.374 272.811 120.374 275.319H120.399C120.399 277.604 120.407 279.889 120.399 282.165H120.39Z" fill="#E3351E"/>
<path d="M62.7507 260.586C58.7993 261.058 58.12 258.98 58.1697 255.686C58.2857 247.864 58.2111 240.042 58.2111 232.228H58.2526C58.2526 223.95 58.3768 215.665 58.2029 207.387C58.1117 203.331 55.8419 201.659 51.5426 201.817C47.848 201.949 46.6468 203.381 46.6385 207.694C46.6219 217.006 46.6136 226.326 46.6302 235.638C46.6302 242.078 46.7048 248.518 46.6965 254.957C46.6965 257.962 45.777 260.379 42.4137 261.124C37.1534 262.283 37.1617 262.316 38.2137 267.754C38.3629 268.541 38.4208 269.352 38.5534 270.146C39.7297 277.281 40.3841 284.499 42.1735 291.527C42.7782 293.886 43.7971 295.955 46.4563 296.352C49.8609 296.857 53.2988 297.172 56.7615 296.874C59.8431 296.617 61.4584 294.954 61.8975 291.858C62.7922 285.493 63.8442 279.152 64.8217 272.795C65.2608 269.956 65.7578 267.125 66.0643 264.278C66.3128 261.968 65.3436 260.271 62.7839 260.586H62.7507Z" fill="#E3351E"/>
<path d="M166.076 257.648C162.87 255.181 161.76 251.713 161.918 247.582C162.166 241.267 161.984 234.934 161.984 228.611H162.058C162.058 221.6 161.992 214.58 162.092 207.57C162.133 204.424 160.774 202.545 157.776 201.858C151.96 200.525 148.721 203.116 148.738 209.026C148.779 223.628 148.821 238.229 148.87 252.838C148.87 253.981 149.127 255.272 147.86 255.909C141.299 259.171 139.634 266.107 136.055 271.603C135.376 272.646 135.359 273.871 135.981 274.898C139.004 279.914 142.069 284.905 145.192 289.863C145.905 290.997 147.023 291.568 148.456 291.121C149.947 290.649 150.212 289.515 150.204 288.141C150.188 283.655 150.262 279.169 150.204 274.691C150.113 267.365 150.08 267.456 157.237 267.506C160.443 267.531 161.429 268.954 161.338 271.976C161.18 277.257 161.263 282.554 161.296 287.843C161.296 289.093 161.263 290.558 162.729 291.063C163.972 291.494 164.858 290.5 165.678 289.697C170.152 285.335 172.529 279.698 174.956 274.128C175.28 273.383 175.23 272.125 174.799 271.471C171.792 266.935 170.732 261.223 166.076 257.648Z" fill="#E3351E"/>
<path d="M16.0212 178.392C12.0035 178.301 7.97747 178.574 3.95148 178.532C1.13494 178.499 -0.00823925 179.832 4.46732e-05 182.514C0.0248965 187.116 4.46732e-05 191.718 4.46732e-05 196.321C0.132588 196.321 0.273414 196.321 0.405957 196.321C0.405957 201.039 0.455661 205.757 0.389389 210.467C0.339686 213.777 2.08759 215.458 5.15265 215.59C8.9384 215.756 12.7407 215.681 16.5265 215.466C19.7655 215.284 22.0187 213.537 22.3004 210.16C23.0376 201.452 23.7004 192.712 22.5572 184.004C22.027 179.956 20.2128 178.483 16.0129 178.392H16.0212ZM10.4378 183.151C12.5502 182.357 12.9478 182.572 14.1241 185.345C11.349 184.856 8.15143 183.996 7.52185 187.82C7.20706 189.723 9.01296 191.586 10.8271 192.083C13.7596 192.877 14.5052 190.187 15.6898 187.29C16.5182 191.271 15.375 193.159 12.3928 194.019C9.21177 194.938 7.31475 193.49 5.96447 189.111C5.11951 186.346 6.37038 184.674 10.4295 183.151H10.4378ZM10.8768 209.448C7.84492 209.424 5.8982 207.263 6.00589 204.043C6.07216 202.065 10.1976 199.069 12.8898 199.052C15.3087 199.035 17.885 202.04 17.7939 204.772C17.7028 207.611 14.936 209.482 10.8768 209.448Z" fill="#E3351E"/>
<path d="M86.0452 22.5538C82.3671 21.5522 78.979 19.8967 75.8725 17.6618C72.9317 16.652 70.2643 14.922 67.0253 14.6737C62.991 14.3592 59.5449 15.9236 56.1154 17.6701C53.655 19.7974 51.203 21.9247 48.7427 24.052C45.4954 26.8746 42.306 29.7634 38.2469 31.4437C33.144 33.5544 28.6127 32.4121 25.2991 27.9837C24.1891 26.5021 23.2447 24.8797 22.2921 23.2822C21.2897 21.6019 19.8317 20.501 18.0424 19.8388C14.6294 18.5724 13.2212 19.5574 13.2129 23.1911C13.2129 27.1477 13.304 31.1043 13.246 35.0609C13.1466 41.4096 13.9999 42.3532 20.3619 42.3284C35.0162 42.2704 49.6622 42.1215 64.3164 42.1215C79.4346 42.1215 94.5528 42.287 109.663 42.3449C114.973 42.3615 115.884 41.3682 115.892 36.0128C115.892 29.8461 115.934 23.6878 115.958 17.5211C115.925 14.8475 115.867 12.1822 115.867 9.50865C115.867 0.469769 114.94 -0.357967 105.736 0.0972878C103.309 0.213171 102.307 0.900192 102.53 3.61517C102.928 8.4657 103.11 13.4073 99.9208 17.6453C96.8143 22.2144 91.6368 24.0934 86.0452 22.562V22.5538Z" fill="#E3351E"/>
<path d="M16.0542 14.7897C18.4151 15.0214 20.95 15.3525 22.7227 17.3557C24.9925 18.3489 26.028 20.4762 27.2458 22.4048C31.2303 28.6956 35.2812 29.4572 41.1545 24.7473C44.0207 22.4462 46.6467 19.8389 49.3804 17.3722C57.0596 8.88792 66.669 7.26555 76.4689 12.8114C79.07 14.2848 81.6215 15.8326 84.1978 17.3557C87.5031 18.2496 90.8083 18.6138 94.1219 17.3722C94.8343 16.6107 95.6876 15.9485 96.2343 15.0794C98.5704 11.396 99.7964 7.38971 98.1148 3.16826C96.5408 -0.771765 92.6805 0.0890811 89.5989 0.064249C65.4264 -0.12613 41.2539 0.635387 17.0814 0.0973584C14.8116 0.0476943 13.5276 1.15686 13.3785 3.35036C13.1879 6.01567 13.1797 8.68926 13.1465 11.3628C13.1217 13.308 13.685 14.5496 16.0625 14.7897H16.0542Z" fill="#E3351E"/>
<path d="M123.215 25.1033C124.259 25.0454 125.303 24.9461 126.346 24.8385C132.062 24.2094 134.224 26.1132 133.785 31.8163C133.429 36.4681 133.189 41.1117 133.437 45.7636C133.595 48.7518 132.269 50.3658 129.511 51.0115C125.559 51.9385 121.591 52.8325 117.64 53.743C100.335 57.7492 83.0297 61.7389 65.7412 65.7866C62.3613 66.5812 59.959 68.5264 60.2324 72.334C60.6631 78.3847 60.4312 84.4272 60.2903 90.4696C60.2241 93.226 61.2679 94.9146 64.3246 94.8898C67.6879 94.8732 69.1044 93.6813 69.1376 90.3869C69.1707 86.6621 69.1044 82.9455 68.9968 79.2207C68.9056 75.9843 70.4133 73.9149 73.4121 72.9051C74.7292 72.4581 76.0878 72.1436 77.4464 71.8456C96.3751 67.6738 115.312 63.4937 134.249 59.3468C141.208 57.8237 142.699 55.5144 142.177 48.7269C141.713 42.6348 141.564 36.5013 142.144 30.3677C142.55 26.0304 143.436 21.5027 140.263 17.6454C132.808 14.6904 125.352 17.2647 117.889 17.6206C115.627 23.4892 117.027 25.4427 123.223 25.0951L123.215 25.1033Z" fill="#E3351E"/>
<path d="M74.6382 112.943C74.6382 108.754 74.6382 104.566 74.6382 100.369C74.6382 97.5798 73.3542 95.8829 70.4631 95.916C65.5839 95.9739 60.7046 96.0981 55.8337 96.3464C51.3024 96.5782 49.629 98.1674 49.3722 102.836C48.9995 109.681 48.7841 116.535 48.7178 123.389C48.6764 128.247 51.1367 130.499 56.0574 129.746C60.9366 129.001 65.7827 128.984 70.6536 129.141C73.5282 129.232 74.6631 127.908 74.6299 125.16C74.5802 121.087 74.6134 117.015 74.6216 112.943H74.6382Z" fill="#E3351E"/>
<path d="M70.4632 134.787C65.7165 134.704 60.9698 134.836 56.2231 134.861C54.1687 134.869 52.0894 134.861 51.9652 137.675C51.8575 140.316 53.2823 141.839 55.8172 142.145C58.2195 142.427 60.6633 142.46 62.1544 142.551C64.9461 142.551 66.7934 142.567 68.649 142.551C70.0738 142.534 71.3578 142.087 72.5176 141.226C74.3566 139.852 74.688 137.874 74.2572 135.921C73.7685 133.702 71.7638 134.82 70.4632 134.795V134.787Z" fill="#E3351E"/>
<path d="M76.5435 129.555C77.5459 129.994 78.5317 129.133 79.3269 128.512C80.4701 127.618 81.0086 126.335 81.0086 124.846C80.9754 116.369 80.9589 107.893 80.9257 99.4257C80.9257 97.7785 80.5198 96.3217 78.482 96.3383C76.3861 96.3548 76.179 97.9441 76.1625 99.5251C76.1376 104.285 76.1542 109.044 76.1542 113.804H76.0631C76.0631 118.215 76.0382 122.627 76.0879 127.039C76.0962 127.892 75.566 129.117 76.5518 129.547L76.5435 129.555Z" fill="#E3351E"/>
<path d="M11.2 200.948C8.7562 200.782 8.19289 202.744 8.27573 204.333C8.42484 207.031 10.968 207.081 12.9313 207.396C14.9112 207.71 15.0768 206.187 15.1265 204.722C15.1348 202.09 13.5443 201.105 11.2 200.948Z" fill="#E3351E"/>
<path d="M125.734 72.2595C120.208 76.6216 114.824 81.9357 109.282 88.5245C109.182 88.6404 109.083 88.748 108.983 88.8639C108.627 89.2529 108.213 89.7081 107.873 90.3041C105.107 90.9911 102.182 91.852 99.3824 93.4164C98.2806 94.0289 96.8806 94.9146 95.7954 96.3549C94.3043 98.3414 94.1883 100.692 95.4475 102.745V129.837C95.4475 141.392 95.4475 152.939 95.4392 164.494C95.4392 165.876 95.9031 167.101 96.8143 168.136C97.4356 168.84 98.1895 169.461 99.1173 170.032C101.627 171.571 104.303 172.424 106.357 172.995C111.692 174.485 117.458 175.321 124.499 175.619C126.255 175.693 127.97 175.735 129.66 175.735C135.235 175.735 140.504 175.321 145.623 174.485C149.906 173.781 153.302 172.896 156.318 171.687C158.057 170.984 159.896 170.131 161.487 168.625C162.713 167.466 163.343 166.017 163.334 164.329C163.318 147.732 163.318 131.136 163.318 114.54V102.737C164.585 100.684 164.461 98.3249 162.953 96.33C162.705 95.9989 162.44 95.701 162.158 95.4195C163.202 91.8603 163.765 88.4997 163.864 85.1887C163.972 81.4473 163.467 78.1447 162.315 75.0986C159.532 67.7317 153.269 63.353 145.557 63.353C145.482 63.353 145.408 63.353 145.342 63.353C142.989 63.3779 140.603 63.8911 137.853 64.9754C133.951 66.5067 130.107 68.8244 125.75 72.2595H125.734ZM153.302 97.9772C152.714 99.3927 152.06 100.833 151.331 102.265C148.481 103.093 145.325 103.713 141.697 104.169C136.9 104.773 131.963 104.996 126.595 104.856C119.62 104.674 113.929 103.962 108.669 102.596C107.426 102.273 106.051 101.884 104.676 101.338L104.013 100.634L103.425 100.792C103.069 100.618 102.712 100.436 102.365 100.237C102.091 100.08 101.868 99.939 101.677 99.7983C102.025 99.5334 102.439 99.3099 102.845 99.0947C105.372 97.8034 108.089 97.0916 110.425 96.5701C115.859 95.3533 121.923 94.7408 128.931 94.6911C135.567 94.7242 140.984 95.1629 145.996 96.09C148.904 96.628 151.231 97.224 153.294 97.969L153.302 97.9772ZM139.294 122.329L135.873 120.384L135.591 124.316C135.567 124.655 135.533 125.003 135.509 125.301C135.459 125.922 135.426 126.228 135.434 126.484C135.451 128.736 135.061 134.1 131.126 135.143C128.973 135.714 127.423 133.62 126.686 132.312C126.131 131.335 125.692 130.234 125.236 129.067C125.046 128.595 124.864 128.123 124.665 127.66C124.441 127.122 124.11 126.576 123.754 125.988C123.571 125.682 123.381 125.375 123.215 125.069L119.537 118.298L118.469 126.633C118.394 127.196 118.328 127.71 118.311 127.983C118.195 129.911 117.557 131.277 116.373 132.163C114.906 133.255 113.366 133.148 112.33 132.866C110.359 132.337 108.553 130.772 107.741 128.877C106.796 126.683 106.523 124.216 106.241 121.609C105.819 117.727 105.372 113.712 102.704 110.07C102.597 109.93 102.439 109.301 102.613 108.283C102.646 108.092 102.688 107.91 102.737 107.736C102.754 107.736 102.77 107.745 102.787 107.753C109 110.046 115.279 110.807 120.597 111.254C125.063 111.627 129.801 111.701 134.68 111.478C135.459 111.444 136.229 111.395 136.983 111.345L143.179 111.916C144.082 111.999 144.961 112.926 145.176 114.019C145.748 116.908 143.726 121.733 140.943 122.511C140.363 122.677 139.783 122.611 139.286 122.329H139.294ZM156.268 85.5777C156.177 87.5478 155.887 89.5426 155.382 91.6285C152.085 90.4283 148.846 89.7826 146.269 89.3522C140.943 88.45 135.459 88.003 129.668 88.003C127.332 88.003 124.947 88.0775 122.495 88.2182C121.467 88.2762 120.473 88.3507 119.504 88.4417C123.704 83.9388 127.515 80.4209 131.433 77.4328C134.78 74.8834 137.654 73.17 140.495 72.0443C142.624 71.2 144.265 70.8523 145.83 70.9268C150.287 71.142 153.311 73.2362 155.059 77.3418C156.044 79.6429 156.434 82.2585 156.276 85.5777H156.268Z" fill="#E3351E"/>
</svg>
