<svg width="167" height="154" viewBox="0 0 167 154" fill="none" xmlns="http://www.w3.org/2000/svg">
<path d="M66.3458 109.641C63.9329 107.72 61.2707 108.085 58.6715 108.076C55.9549 108.07 53.2354 108.064 50.5187 108.082C49.8539 108.087 49.1776 108.125 48.5299 108.259C46.5899 108.664 45.3719 110.132 45.3891 111.958C45.4035 113.796 46.4838 115 48.5758 115.393C51.3641 115.915 54.1896 115.582 56.9951 115.648C58.8435 115.691 58.8435 115.657 58.8435 117.483C58.8435 119.249 58.8291 121.012 58.8521 122.779C58.8578 123.352 58.7374 123.753 58.1729 124.046C53.4875 126.48 48.5099 127.733 43.2685 127.025C38.2909 126.351 34.5884 123.544 32.6885 118.851C30.2326 112.775 30.0922 106.559 32.6656 100.467C35.6459 93.4076 42.661 89.9298 49.5358 91.9454C53.1952 93.0177 55.5508 95.6698 57.5482 98.7147C58.3133 99.8816 59.259 100.762 60.6345 101.089C64.3169 101.966 67.2657 98.8781 66.2369 95.1308C65.2081 91.3949 62.7666 88.7113 59.4883 86.7817C54.8401 84.0464 49.7278 83.344 44.4578 83.6794C38.9901 84.0263 33.8491 85.4427 29.4617 88.9406C24.4497 92.9346 21.9365 98.2961 20.9937 104.498C20.1483 110.034 20.6355 115.473 22.7818 120.648C26.1748 128.828 32.6598 133.166 41.1651 134.554C49.4842 135.91 57.2559 133.986 64.529 129.886C66.32 128.877 67.4176 127.297 67.856 125.273C67.9449 124.869 68.0566 124.47 68.2257 123.805C69.8247 129.714 72.1058 135.033 75.2924 139.944C75.7767 140.693 75.2552 140.968 74.8626 141.341C68.7558 147.109 61.6146 150.951 53.3815 152.617C28.5304 157.646 5.06912 141.593 0.65598 116.597C-3.59668 92.5102 13.2993 69.1229 37.669 65.5591C51.8512 63.4833 64.2166 67.5431 74.8139 77.1624C75.7796 78.0369 75.834 78.616 75.1234 79.7314C69.6471 88.3271 66.8473 97.7714 66.4432 107.944C66.426 108.403 66.3888 108.864 66.3429 109.639L66.3458 109.641Z" fill="#E3351E"/>
<path d="M63.2334 56.1835C58.5079 54.5693 53.877 53.5514 49.1114 53.1357C46.6354 52.9207 44.1538 52.8834 41.6807 53.0325C40.5229 53.1042 40.2221 52.6425 40.0816 51.6563C37.8894 36.1536 42.1764 22.6924 53.6707 12.1011C66.3943 0.38313 81.5078 -2.93416 97.8794 2.6281C114.414 8.24484 124.338 20.198 127.344 37.4352C131.041 58.6435 118.24 79.5851 97.845 86.406C96.438 86.8762 95.8792 86.6583 95.2201 85.2563C90.6207 75.4822 83.7402 67.6578 74.6216 61.8604C73.5326 61.1666 73.2117 60.4498 73.2375 59.2341C73.312 55.7047 73.2948 52.1752 73.2432 48.6457C73.2289 47.7455 73.5069 47.4874 74.3752 47.5362C75.7535 47.6136 77.152 47.4616 78.516 47.625C81.184 47.9462 83.339 49.2593 85.0641 51.3351C88.1361 55.0309 90.1851 59.3603 92.6524 63.4316C93.5666 64.9397 94.3862 66.5081 95.627 67.7897C97.4438 69.6648 99.8137 70.1407 102.015 69.0885C103.634 68.3144 104.353 67.1015 104.261 65.3096C104.204 64.1971 103.863 63.1592 103.422 62.15C100.791 56.1147 97.2002 50.7932 91.9331 46.7219C91.8328 46.6445 91.7641 46.5212 91.5835 46.3033C93.4433 45.813 95.1656 45.2052 96.8019 44.3594C105.671 39.7777 104.892 29.0632 100.238 23.9453C97.3922 20.8173 93.8187 19.3521 89.7008 19.2862C82.5509 19.1687 75.3982 19.1457 68.2483 19.2088C65.1305 19.2346 63.2219 21.4939 63.2219 24.794C63.2219 34.6684 63.2277 44.5429 63.2334 54.4173C63.2334 54.9391 63.2334 55.461 63.2334 56.1863V56.1835Z" fill="#E3351E"/>
<path d="M133.804 108.214C134.428 107.847 134.876 107.592 135.32 107.325C139.309 104.908 141.252 101.356 141.025 96.7021C140.802 92.1291 138.438 88.9465 134.377 86.9596C131.316 85.4601 128.032 84.987 124.674 84.8723C124.25 84.858 123.825 84.8723 123.436 84.8723C123.186 84.3419 123.605 84.2014 123.803 83.9978C128.365 79.3731 132.044 74.1291 134.772 68.2314C135.159 67.3971 135.523 67.248 136.386 67.5548C153.21 73.5557 163.587 85.3253 166.418 102.907C170.055 125.511 156.288 146.284 134.386 152.402C109.543 159.341 83.6058 142.912 79.2098 117.477C78.2985 112.202 78.2928 106.952 79.2471 101.691C79.3703 101.011 79.4735 100.553 80.3675 100.616C87.5403 101.126 94.5268 100.134 101.359 97.9379C101.579 97.8662 101.809 97.8318 102.172 97.7487C102.172 98.3508 102.172 98.864 102.172 99.3772C102.172 108.678 102.172 117.982 102.172 127.283C102.172 127.713 102.167 128.143 102.178 128.57C102.273 132.197 104.052 134.385 107.629 134.422C114.865 134.5 122.123 134.973 129.339 134.007C132.337 133.605 135.191 132.682 137.747 131.008C142 128.224 143.65 124.164 143.326 119.229C143.023 114.622 140.59 111.416 136.509 109.404C135.704 109.008 134.867 108.675 133.801 108.208L133.804 108.214Z" fill="#E3351E"/>
<path d="M112.208 119.559C112.208 117.558 112.208 115.556 112.208 113.552C112.208 113.025 112.13 112.46 112.95 112.491C117.561 112.655 122.186 112.124 126.782 112.804C127.528 112.913 128.261 113.168 128.969 113.438C131.763 114.501 133.19 116.477 133.202 119.238C133.216 122.627 131.912 124.791 129.115 125.953C127.831 126.486 126.479 126.821 125.092 126.844C121.14 126.905 117.185 126.882 113.231 126.936C112.4 126.948 112.176 126.638 112.193 125.852C112.236 123.756 112.208 121.658 112.208 119.562V119.559Z" fill="#E3351E"/>
<path d="M73.2662 33.4042C73.2662 31.4975 73.2891 29.588 73.2547 27.6814C73.2404 26.9703 73.4209 26.6492 74.2061 26.675C78.2524 26.7954 82.3074 26.4571 86.348 26.9302C87.4427 27.0592 88.503 27.3029 89.5231 27.7215C92.1567 28.7967 93.409 30.6489 93.4061 33.4558C93.4061 36.2398 92.1223 38.178 89.569 39.2503C87.6003 40.076 85.5083 40.2825 83.4107 40.3283C80.4103 40.3943 77.4042 40.314 74.4038 40.3828C73.398 40.4057 73.2261 40.0043 73.249 39.1299C73.3006 37.2232 73.2662 35.3166 73.2662 33.407V33.4042Z" fill="#E3351E"/>
<path d="M112.208 98.7462C112.208 96.9829 112.208 95.2196 112.208 93.4563C112.208 92.9803 112.133 92.4442 112.875 92.4757C117.429 92.6678 122.025 91.9252 126.536 93.0635C129.849 93.8978 130.986 95.1565 131.155 98.1469C131.325 101.16 129.986 103.196 127.115 104.337C125.309 105.054 123.415 105.226 121.51 105.255C118.842 105.295 116.174 105.214 113.506 105.292C112.388 105.323 112.136 104.919 112.182 103.89C112.262 102.178 112.205 100.458 112.205 98.7433L112.208 98.7462Z" fill="#E3351E"/>
</svg>
