<svg width="210" height="210" viewBox="0 0 210 210" fill="none" xmlns="http://www.w3.org/2000/svg">
<path d="M36.5244 105.338C38.306 107.922 37.9478 110.505 36.5389 113.094C36.4711 113.196 36.4082 113.303 36.3404 113.405C34.5926 113.877 32.8545 114.393 31.097 114.806C29.6155 115.152 30.1432 116.3 30.1239 117.166C30.1045 117.983 29.693 119.039 31.0728 119.36C32.8351 119.774 34.5635 120.314 36.3113 120.795C36.5001 120.99 36.6841 121.18 36.8729 121.374C38.0204 123.929 38.093 126.434 36.5292 128.857L36.5824 128.804C34.9121 129.845 32.9562 130.059 31.1309 130.628C30.2207 130.911 29.9593 131.455 30.119 132.239C30.3175 133.207 29.4073 134.599 30.8453 135.085C32.6511 135.698 34.4522 136.423 36.3936 136.564C36.4372 136.647 36.4808 136.73 36.5195 136.817C37.9623 139.42 38.3012 142.023 36.5244 144.631L36.5776 144.587C35.0719 145.73 33.2128 145.945 31.4747 146.358C29.7511 146.767 30.1771 147.93 30.09 149.019C29.998 150.168 30.1723 150.961 31.5424 151.248C33.2515 151.603 34.9073 152.216 36.5873 152.722L36.5534 152.659C37.391 154.619 38.2963 156.546 37.3813 158.784C36.8342 160.112 36.1322 161.115 34.6216 161.387C33.7889 161.538 32.9949 161.918 32.1573 162.039C30.5548 162.278 29.998 163.041 30.0367 164.73C30.0706 166.238 30.4773 166.929 31.954 167.201C33.358 167.459 34.7185 167.97 36.2774 168.423C35.435 165.464 34.5054 162.438 37.328 160.429C39.8311 158.648 42.9103 159.217 44.6726 161.163C46.2413 162.895 46.4494 165.367 45.2052 167.459C43.7915 169.829 41.7871 170.296 37.3329 169.162C37.7396 170.383 38.2818 171.459 38.2431 172.646C38.2044 173.809 37.6863 174.855 37.2845 175.969C42.46 175.176 44.1352 175.73 45.3988 178.591C46.3429 180.732 45.7862 183.252 44.0384 184.77C42.1405 186.42 39.6859 186.522 37.4588 185.048C35.2075 183.554 34.8298 181.525 36.1419 177.205C34.7475 177.929 33.4306 178.163 32.0411 178.061C28.8506 177.827 27.4998 176.762 27.524 173.59C27.5434 171.366 26.667 170.588 24.6965 170.305C22.2903 169.96 20.6394 168.569 19.6372 166.311C18.9061 164.666 18.2815 162.91 16.4611 162.01C16.0302 161.796 15.7882 161.168 15.4928 160.706C6.45374 146.509 1.52024 131.008 0.285655 114.193C-0.367949 105.294 0.246923 96.4784 0.760123 87.6331C2.55148 84.3977 1.49119 80.6075 2.87586 77.2212C4.21212 73.9614 4.98676 70.473 6.00832 67.0818C6.32786 66.0309 6.72002 64.9946 6.95241 63.9242C7.16544 62.9365 7.69316 62.7127 8.62273 62.7127C10.8111 62.7127 11.242 62.1386 10.0365 60.2606C9.3538 59.1951 9.65882 58.5917 10.0607 57.7452C14.4132 48.5594 20.039 40.2688 27.1851 33.034C29.1556 31.0392 31.0873 29.0006 33.0385 26.9815C34.0503 25.9403 35.1929 25.4489 36.6115 26.1495L36.5534 26.0862C38.3012 28.6649 37.9429 31.2435 36.5389 33.8173C36.4711 33.9195 36.4033 34.0265 36.3355 34.1287C34.8782 34.5082 33.4306 34.9753 31.954 35.2477C30.5064 35.5153 30.0464 36.1965 30.027 37.7145C30.0028 39.3784 30.5402 40.1179 32.1283 40.405C33.5468 40.6629 34.9267 41.1397 36.3259 41.5192C36.5098 41.7138 36.689 41.9035 36.8729 42.0982C38.0155 44.6525 38.093 47.1581 36.5292 49.586L36.5824 49.5324C34.9121 50.5785 32.9562 50.7877 31.1309 51.3569C30.2207 51.6391 29.9544 52.1841 30.119 52.9674C30.3175 53.9356 29.4073 55.3222 30.8453 55.8136C32.6511 56.4267 34.4522 57.1516 36.3936 57.2927C36.4372 57.3754 36.4808 57.4581 36.5147 57.5457C37.9526 60.1487 38.2867 62.7565 36.5195 65.3595L36.5728 65.3157C35.0671 66.459 33.2079 66.6731 31.4698 67.0867C29.7462 67.4954 30.1723 68.6582 30.0851 69.748C29.9932 70.8963 30.1675 71.6893 31.5376 71.9764C33.2467 72.3315 34.9024 72.9446 36.5824 73.4506L36.5486 73.3873C37.4684 75.4016 38.2867 77.411 37.3087 79.6831C36.7664 80.9432 36.0402 81.8579 34.6168 82.1158C33.7841 82.2666 32.9901 82.6461 32.1525 82.7678C30.5548 83.0062 29.9932 83.7652 30.0319 85.4583C30.0658 86.9666 30.4967 87.5845 31.9443 87.9494C33.5614 88.3581 35.3285 88.5089 36.6696 89.7155L36.6212 89.6571C38.4271 92.265 37.7783 94.8387 36.5147 97.4076C36.4808 97.4855 36.442 97.5633 36.3985 97.6412C34.5732 97.7336 32.9223 98.5315 31.1696 98.9354C29.4122 99.3392 30.2836 100.765 30.1094 101.767C29.9496 102.701 30.2207 103.304 31.31 103.606C33.0917 104.102 34.9702 104.375 36.5824 105.397L36.5292 105.343L36.5244 105.338ZM27.2964 45.6791C27.2964 43.1491 27.2868 43.0566 26.1442 43.1588C22.2564 43.514 22.973 42.9253 22.9246 45.4553C22.8761 47.815 23.0117 47.8393 25.9214 47.9658C28.0953 48.0631 26.9914 46.4381 27.2964 45.6791ZM27.4756 93.2672C26.8462 92.5666 28.1727 90.9367 26.0376 91.0146C23.2247 91.1119 23.0795 91.1459 23.0795 93.311C23.0795 95.4469 23.0795 95.4566 26.2604 95.5393C28.2696 95.5929 26.7832 93.9727 27.4756 93.2672ZM27.2964 61.5888C27.2964 60.0643 26.9543 59.3053 26.27 59.3118C23.1085 59.3459 23.0843 59.3605 23.0795 61.5304C23.0795 63.7588 23.1521 63.7101 25.781 63.8658C27.8193 63.9826 27.1948 62.6105 27.2964 61.5937V61.5888ZM27.3981 77.4207C26.9285 76.6569 28.1195 75.1583 26.1345 75.1826C23.215 75.2167 23.0843 75.2556 23.0795 77.3867C23.0795 79.5323 23.3458 79.7269 26.2361 79.6928C28.1873 79.6734 26.8413 78.1213 27.3933 77.4207H27.3981ZM27.2964 141.001C27.2964 139.376 26.9446 138.57 26.241 138.583C24.1333 138.619 23.0795 139.38 23.0795 140.865C23.0795 143.03 23.0795 142.991 26.1151 143.074C28.0904 143.128 26.9478 141.619 27.2964 141.006V141.001ZM27.3933 124.95C26.8026 124.294 28.2502 122.683 26.2458 122.712C23.1279 122.761 23.0795 122.8 23.0795 125.014C23.0795 127.13 23.0795 127.082 26.0957 127.179C28.0856 127.242 26.9575 125.744 27.3933 124.95ZM25.1904 158.95C26.1829 158.93 27.6257 159.461 27.2577 157.573C27.064 156.575 28.2357 154.887 26.3765 154.668C23.6556 154.352 22.9536 154.872 22.91 156.41C22.8681 158.064 23.6266 158.911 25.1855 158.95H25.1904ZM27.4029 109.445C26.9091 108.637 28.1582 107.031 26.028 107.119C23.1037 107.236 23.0843 107.177 23.0795 109.245C23.0746 111.434 23.0746 111.459 26.4104 111.459C28.1389 111.459 26.8365 110.028 27.4029 109.445ZM18.94 148.582C18.6447 148.153 19.6372 146.742 18.0637 146.971C16.9937 147.127 15.3089 146.441 15.3379 148.791C15.3621 150.679 16.4611 150.353 17.5602 150.513C19.1143 150.742 19.0465 149.778 18.94 148.582ZM18.9642 53.6972C18.9497 52.6706 19.3031 51.6148 17.6376 51.7316C16.2965 51.824 15.6381 52.0235 15.6187 53.6534C15.5945 55.5217 16.7516 55.2687 17.8313 55.4049C19.5064 55.619 18.7996 54.3248 18.9642 53.6972ZM19.0029 132.828C18.7463 132.18 19.55 130.925 17.9475 131.1C16.8097 131.222 15.7543 131.173 15.7785 132.959C15.8027 134.667 16.8 134.564 17.87 134.681C19.5839 134.861 18.7366 133.528 19.0029 132.832V132.828ZM19.0078 117.146C18.6882 116.49 19.6372 115.132 17.9184 115.273C16.8581 115.361 15.8559 115.244 15.7785 116.947C15.6865 118.908 16.9404 118.698 18.054 118.81C19.5016 118.951 18.7415 117.759 19.0078 117.146ZM19.1143 69.3393C18.635 69.0231 19.8986 67.544 18.2864 67.724C17.3229 67.8311 15.7833 67.257 15.7833 69.3637C15.7833 71.0422 16.5628 71.1541 17.8458 71.2563C19.3564 71.3779 19.1385 70.4486 19.1143 69.3393ZM19.0126 101.125C18.7173 100.56 19.5549 99.2468 17.8071 99.4268C16.6112 99.5533 15.8317 99.6263 15.7785 101.246C15.7155 103.086 16.8533 102.764 17.8603 102.915C19.429 103.154 18.8335 101.957 19.0126 101.12V101.125ZM18.9836 85.2053C18.6495 84.7334 19.6614 83.3857 18.0104 83.5851C16.9598 83.7116 15.7494 83.4246 15.7785 85.3172C15.8075 86.9325 16.5676 86.9763 17.749 87.0785C19.3418 87.2147 18.8964 86.1297 18.9787 85.2053H18.9836ZM10.5254 141.648C10.6707 140.403 10.7433 139.683 9.56683 139.804C8.7825 139.887 8.21121 139.926 8.15311 140.972C8.07564 142.344 9.02942 142.13 9.80406 142.286C10.9079 142.51 10.5206 141.668 10.5254 141.648Z" fill="#E3351E"/>
<path d="M36.6648 89.7105C36.1274 88.2315 35.4254 86.8059 35.4738 85.1663C35.5561 82.4076 36.5099 81.1086 39.0323 80.4226C41.5451 79.7365 44.0336 80.6123 45.2246 82.6509C46.3817 84.636 46.2849 86.6162 44.9825 88.4893C43.6995 90.3333 41.8694 90.922 39.7198 90.489C38.6692 90.2749 37.6476 89.9343 36.6164 89.6522L36.6648 89.7154V89.7105Z" fill="#E3351E"/>
<path d="M36.5243 144.626C37.5652 144.315 38.5916 143.945 39.6422 143.697C41.6999 143.215 43.9415 144.105 45.0744 145.842C46.3381 147.774 46.3235 149.744 45.118 151.705C44.0141 153.496 42.1308 154.293 39.9231 153.924C38.7175 153.719 37.5604 153.369 36.5437 152.649L36.5824 152.712C34.9992 150.002 35.2994 147.292 36.5776 144.577L36.5243 144.621V144.626Z" fill="#E3351E"/>
<path d="M36.5243 65.3545C37.5652 65.0431 38.5916 64.6733 39.6422 64.4252C41.7047 63.9435 43.9367 64.8339 45.0744 66.5757C46.3381 68.5072 46.3284 70.4777 45.118 72.4336C44.0141 74.2241 42.1308 75.022 39.9231 74.6522C38.7175 74.4479 37.5604 74.0927 36.5437 73.3775L36.5824 73.4407C34.9992 70.7307 35.2994 68.0207 36.5776 65.3058L36.5243 65.3496V65.3545Z" fill="#E3351E"/>
<path d="M36.5147 57.5407C36.476 57.4531 36.4373 57.3704 36.3937 57.2877C35.0671 54.6702 35.2995 52.0866 36.5825 49.5323L36.5293 49.5858C37.391 49.2939 38.2383 48.9728 39.1098 48.7149C41.332 48.063 43.5204 48.7247 44.8712 50.4178C46.2123 52.1061 46.3817 54.3053 45.3118 56.266C44.2176 58.2657 42.4165 59.1171 39.9135 58.7863C38.6934 58.6257 37.5653 58.1878 36.5196 57.5359L36.5147 57.5407Z" fill="#E3351E"/>
<path d="M36.5196 136.817C36.4808 136.73 36.4421 136.647 36.3937 136.564C35.0671 133.947 35.2995 131.363 36.5825 128.809L36.5293 128.862C37.391 128.57 38.2383 128.249 39.1098 127.991C41.332 127.339 43.5204 128.001 44.8712 129.694C46.2123 131.382 46.3817 133.582 45.3118 135.542C44.2176 137.547 42.4165 138.393 39.9183 138.063C38.6983 137.902 37.5702 137.464 36.5244 136.817H36.5196Z" fill="#E3351E"/>
<path d="M36.3403 34.1334C36.4081 34.0312 36.4759 33.9242 36.5437 33.822C37.3909 33.4961 38.2188 33.1117 39.0854 32.8587C41.4094 32.1727 43.7672 32.9755 45.0599 34.8292C46.3332 36.6537 46.3332 38.9063 45.0599 40.8233C43.8156 42.7013 41.7192 43.4555 39.2888 42.8473C38.4706 42.6429 37.6717 42.351 36.8632 42.098C36.6792 41.9034 36.5001 41.7137 36.3161 41.519C35.3236 39.0523 35.1493 36.5904 36.3306 34.1286L36.3403 34.1334Z" fill="#E3351E"/>
<path d="M36.868 121.374C36.6792 121.18 36.4952 120.99 36.3064 120.795C35.2607 118.329 35.2074 115.862 36.3403 113.405C36.4081 113.303 36.471 113.196 36.5388 113.094C37.3861 112.768 38.214 112.383 39.0806 112.13C41.4045 111.444 43.7623 112.247 45.055 114.096C46.3283 115.92 46.3283 118.173 45.055 120.09C43.8108 121.968 41.7144 122.722 39.2888 122.119C38.4706 121.914 37.6717 121.623 36.8632 121.374H36.868Z" fill="#E3351E"/>
<path d="M36.3937 97.6362C36.4373 97.5583 36.4712 97.4805 36.5099 97.4027C37.638 96.6582 38.8822 96.2009 40.2233 96.0793C42.4117 95.8847 44.1498 96.7118 45.273 98.6141C46.4447 100.599 46.2413 102.584 44.9245 104.428C43.6124 106.267 41.7339 106.759 39.623 106.326C38.5675 106.112 37.5605 105.674 36.5293 105.338L36.5825 105.392C35.3576 102.832 34.9945 100.259 36.3986 97.6362H36.3937Z" fill="#E3351E"/>
<path d="M53.6682 77.5324C53.6295 80.2473 51.3395 82.5292 48.6379 82.5486C45.8734 82.5681 43.5107 80.1743 43.5543 77.4011C43.5979 74.6813 45.8831 72.3995 48.5846 72.3849C51.3443 72.3654 53.7069 74.7592 53.6682 77.5324Z" fill="#E3351E"/>
<path d="M53.6633 61.6374C53.6537 64.3474 51.383 66.639 48.6718 66.6828C45.9072 66.7266 43.5301 64.362 43.5494 61.5839C43.5688 58.8593 45.8249 56.5823 48.541 56.5482C51.3249 56.5142 53.6779 58.8447 53.6633 61.6374Z" fill="#E3351E"/>
<path d="M53.6585 172.782C53.5326 175.589 51.1167 177.793 48.328 177.647C45.6265 177.501 43.4284 175.093 43.5494 172.407C43.6753 169.595 46.1251 167.362 48.88 167.542C51.6251 167.717 53.7747 170.082 53.6537 172.782H53.6585Z" fill="#E3351E"/>
<path d="M53.5713 156.794C53.5277 159.519 51.2425 161.796 48.5506 161.806C45.7716 161.82 43.4574 159.46 43.4961 156.658C43.5348 153.856 45.9314 151.54 48.6862 151.647C51.3974 151.749 53.6197 154.089 53.5761 156.794H53.5713Z" fill="#E3351E"/>
<path d="M53.6681 93.345C53.6536 96.1328 51.2861 98.439 48.4974 98.3806C45.7861 98.3223 43.5397 96.0161 43.5493 93.3012C43.5639 90.5182 45.9604 88.1828 48.7201 88.2558C51.441 88.3288 53.6826 90.635 53.6681 93.345Z" fill="#E3351E"/>
<path d="M53.5713 140.807C53.6149 143.521 51.4072 145.847 48.6814 145.944C45.9024 146.047 43.5252 143.75 43.4961 140.943C43.4671 138.194 45.6506 135.897 48.3715 135.82C51.1845 135.742 53.5277 137.985 53.5762 140.807H53.5713Z" fill="#E3351E"/>
<path d="M48.5603 119.993C51.3054 120.007 53.5374 122.216 53.5761 124.965C53.6148 127.763 51.3054 130.064 48.4828 130.045C45.7087 130.025 43.5203 127.845 43.4912 125.067C43.4622 122.226 45.7087 119.973 48.5603 119.988V119.993Z" fill="#E3351E"/>
<path d="M53.6681 45.7616C53.6681 48.569 51.349 50.8362 48.5167 50.7876C45.7716 50.7438 43.5445 48.4862 43.5493 45.7568C43.5542 42.9543 45.8781 40.6871 48.7007 40.7308C51.4361 40.7698 53.6681 43.0273 53.6681 45.7616Z" fill="#E3351E"/>
<path d="M53.6681 29.8324C53.7116 32.5473 51.4894 34.8632 48.7685 34.9313C45.9362 34.9994 43.5929 32.776 43.5445 29.9784C43.4961 27.2538 45.7086 24.9573 48.4441 24.8843C51.2909 24.8113 53.6197 27.0154 53.6681 29.8324Z" fill="#E3351E"/>
<path d="M48.507 114.203C45.7715 114.164 43.5396 111.902 43.5444 109.172C43.5444 106.365 45.8635 104.107 48.6958 104.151C51.4361 104.195 53.6632 106.452 53.6632 109.182C53.6632 111.979 51.3344 114.247 48.507 114.203Z" fill="#E3351E"/>
<path d="M53.3534 188.409C53.3534 191.149 51.5669 193.285 49.2526 193.304C46.9723 193.319 43.5251 190.132 43.5009 187.986C43.4767 185.408 45.636 183.359 48.357 183.393C51.4555 183.432 53.3486 185.335 53.3534 188.409Z" fill="#E3351E"/>
<path d="M56.4472 169.259C53.7456 169.25 51.8042 167.333 51.8381 164.705C51.872 162.029 54.133 159.752 56.7038 159.806C59.1633 159.859 61.3081 162.112 61.2597 164.593C61.2064 167.264 59.1439 169.269 56.4472 169.259Z" fill="#E3351E"/>
<path d="M56.5197 89.983C53.9343 89.9781 51.591 87.7741 51.5813 85.3414C51.5716 82.9622 54.0214 80.5393 56.4374 80.5344C58.9695 80.5344 61.061 82.7774 61.0174 85.4484C60.9739 87.9833 58.9888 89.9878 56.5197 89.983Z" fill="#E3351E"/>
<path d="M56.4133 153.427C53.9006 153.427 51.8913 151.355 51.8526 148.713C51.8139 146.071 53.8231 143.92 56.3165 143.93C58.8583 143.945 61.2064 146.197 61.2306 148.64C61.2548 151.121 58.9406 153.423 56.4181 153.427H56.4133Z" fill="#E3351E"/>
<path d="M56.5295 121.9C53.9684 121.915 51.8381 119.715 51.8526 117.069C51.8671 114.451 53.9296 112.49 56.7183 112.442C59.11 112.403 61.2403 114.67 61.2306 117.249C61.2209 119.725 59.0423 121.88 56.5295 121.895V121.9Z" fill="#E3351E"/>
<path d="M51.8525 21.8971C51.8864 19.2942 54.0119 17.314 56.7667 17.314C59.1681 17.314 61.2741 19.6104 61.2305 22.1745C61.187 24.6412 58.955 26.8209 56.4859 26.8112C53.9489 26.8014 51.8235 24.5439 51.8574 21.902L51.8525 21.8971Z" fill="#E3351E"/>
<path d="M51.8526 53.381C51.8864 50.8948 53.915 48.8562 56.3648 48.8416C58.8824 48.8319 61.3177 51.3035 61.2209 53.7848C61.1289 56.2418 59.0277 58.3193 56.6311 58.3193C53.9973 58.3193 51.8138 56.0667 51.8526 53.381Z" fill="#E3351E"/>
<path d="M61.0176 180.464C61.0419 183.121 59.081 185.096 56.4327 185.096C53.8667 185.096 51.5864 182.863 51.5815 180.357C51.5815 177.92 53.7699 175.759 56.302 175.711C58.9213 175.662 60.9934 177.749 61.0176 180.464Z" fill="#E3351E"/>
<path d="M56.5875 74.1561C53.9877 74.1366 51.8477 71.9618 51.8525 69.3394C51.8525 66.8483 54.1039 64.62 56.544 64.6784C58.9647 64.7368 61.308 67.2327 61.2354 69.6751C61.1628 72.1418 59.0567 74.1756 56.5875 74.161V74.1561Z" fill="#E3351E"/>
<path d="M56.5973 105.82C53.9538 105.805 51.8623 103.694 51.8526 101.037C51.8429 98.4246 53.9054 96.3811 56.4907 96.4346C58.8873 96.4833 61.2015 98.7846 61.2306 101.149C61.2645 103.703 59.1536 105.835 56.5973 105.815V105.82Z" fill="#E3351E"/>
<path d="M56.7231 128.346C59.1777 128.322 61.2499 130.507 61.2305 133.095C61.216 135.494 58.9453 137.727 56.5052 137.741C54.0312 137.756 51.9154 135.64 51.8525 133.09C51.7896 130.366 53.8278 128.376 56.7231 128.346Z" fill="#E3351E"/>
<path d="M56.4423 33.0193C58.9018 33.0436 61.2547 35.4033 61.2257 37.8262C61.1966 40.3514 59.0325 42.5019 56.5536 42.4532C53.9731 42.4045 51.8574 40.2346 51.8477 37.6316C51.838 35.0384 53.8714 32.9949 56.4374 33.0193H56.4423Z" fill="#E3351E"/>
<path d="M68.6864 156.614C68.73 159.008 66.8951 160.828 64.4017 160.871C61.8648 160.915 59.9862 159.105 59.933 156.575C59.8846 154.172 61.8841 152.124 64.3 152.109C66.6191 152.094 68.6429 154.172 68.6864 156.614Z" fill="#E3351E"/>
<path d="M68.6865 188.434C68.672 190.769 66.7499 192.628 64.3292 192.642C61.8358 192.662 59.9282 190.677 59.9282 188.064C59.9282 185.661 61.797 183.826 64.2226 183.86C66.687 183.89 68.6962 185.952 68.6817 188.434H68.6865Z" fill="#E3351E"/>
<path d="M59.9282 108.788C59.9282 106.384 61.8067 104.555 64.2323 104.589C66.6967 104.623 68.7059 106.686 68.6865 109.172C68.6671 111.507 66.7451 113.361 64.3243 113.376C61.8309 113.39 59.9282 111.4 59.9331 108.793L59.9282 108.788Z" fill="#E3351E"/>
<path d="M68.425 172.573C68.425 175.185 66.561 176.981 63.874 176.951C61.55 176.922 59.6667 175.03 59.7054 172.762C59.7442 170.364 61.9325 168.165 64.2806 168.165C66.6336 168.165 68.4201 170.067 68.425 172.577V172.573Z" fill="#E3351E"/>
<path d="M60.1799 140.86C60.1848 138.33 62.0245 136.511 64.5567 136.515C66.9193 136.52 68.8704 138.442 68.8946 140.782C68.9189 143.098 66.6433 145.331 64.2904 145.302C61.9471 145.273 60.1799 143.366 60.1848 140.865L60.1799 140.86Z" fill="#E3351E"/>
<path d="M68.6865 93.3546C68.6623 95.8457 66.8709 97.6848 64.4792 97.68C61.9907 97.68 60.1848 95.9041 60.1848 93.4665C60.1848 90.7857 62.0585 88.8299 64.5712 88.8882C66.9 88.9418 68.7204 90.9122 68.6913 93.3498L68.6865 93.3546Z" fill="#E3351E"/>
<path d="M64.0678 34.2601C61.676 34.226 59.9186 32.3626 59.9283 29.8667C59.9379 27.3756 61.7293 25.6484 64.2372 25.7116C66.7403 25.7749 68.6769 27.6918 68.6769 30.1051C68.6769 32.4648 66.6483 34.2942 64.0629 34.2601H64.0678Z" fill="#E3351E"/>
<path d="M68.6864 61.5937C68.7057 64.0264 66.8466 66.0066 64.5227 66.0309C62.0438 66.0553 60.1605 64.1286 60.1798 61.5986C60.1992 59.1416 62.1358 57.356 64.7357 57.3949C66.9144 57.4241 68.667 59.2875 68.6864 61.5986V61.5937Z" fill="#E3351E"/>
<path d="M64.3969 120.659C66.8371 120.635 68.701 122.464 68.6865 124.868C68.672 127.305 66.8371 129.198 64.4744 129.208C61.9181 129.222 60.1606 127.534 60.1558 125.067C60.1509 122.377 61.7777 120.688 64.3969 120.659Z" fill="#E3351E"/>
<path d="M64.2711 73.0612C66.7403 73.0417 68.6575 74.8516 68.6866 77.2211C68.7156 79.7365 66.8371 81.6145 64.305 81.5999C61.8359 81.5805 60.151 79.717 60.1607 77.0167C60.1704 74.7008 61.8552 73.0806 64.2711 73.0661V73.0612Z" fill="#E3351E"/>
<path d="M60.1559 45.3774C60.1413 43.0274 61.7681 41.4316 64.2082 41.3878C66.7209 41.344 68.6285 43.0809 68.6818 45.4649C68.7399 47.956 66.8371 49.9216 64.3583 49.9362C61.9278 49.9508 60.1704 48.0485 60.1559 45.3774Z" fill="#E3351E"/>
<path d="M60.1606 13.6747C60.1412 11.3685 61.8212 9.68511 64.1984 9.62186C66.6918 9.55374 68.7155 11.495 68.6865 13.9228C68.6574 16.3361 66.7838 18.2092 64.3727 18.2336C61.9422 18.2579 60.1799 16.3507 60.1606 13.6747Z" fill="#E3351E"/>
<path d="M36.6115 26.1494C36.1467 24.7871 36.6357 23.8919 37.7928 23.0647C39.6762 21.7219 41.4675 20.2428 43.225 18.7394C43.9851 18.0923 44.3676 18.1848 44.9002 18.973C46.2509 20.9726 46.3768 22.8117 45.1858 24.6071C43.8205 26.6602 41.8355 27.4825 39.5309 26.9132C38.5336 26.6651 37.5508 26.3635 36.5582 26.0861L36.6163 26.1494H36.6115Z" fill="#E3351E"/>
<path d="M76.1086 148.63C76.0941 150.985 74.2495 152.78 71.9013 152.727C69.805 152.678 68.033 150.824 68.0088 148.655C67.9846 146.519 70.0035 144.563 72.1531 144.631C74.3027 144.704 76.1183 146.543 76.1086 148.63Z" fill="#E3351E"/>
<path d="M76.1135 69.3345C76.1135 71.6942 74.2834 73.4992 71.9353 73.4603C69.8292 73.4263 68.0572 71.5969 68.0136 69.4172C67.9701 67.2862 69.9744 65.3108 72.1289 65.3643C74.2689 65.4179 76.1135 67.257 76.1135 69.3394V69.3345Z" fill="#E3351E"/>
<path d="M76.1134 180.411C76.0698 182.673 74.2736 184.459 72.0223 184.473C69.8969 184.483 67.999 182.503 68.0135 180.294C68.028 178.236 69.9646 176.333 72.0465 176.333C74.2591 176.333 76.1521 178.231 76.1134 180.416V180.411Z" fill="#E3351E"/>
<path d="M76.1086 116.981C76.0699 119.234 74.264 121.053 72.0418 121.078C69.9406 121.102 68.0088 119.102 68.0088 116.908C68.0088 114.748 69.9986 112.879 72.2064 112.967C74.4093 113.055 76.1474 114.84 76.1086 116.981Z" fill="#E3351E"/>
<path d="M76.1133 21.8583C76.0794 24.1255 74.2832 25.916 72.0319 25.9355C69.9065 25.95 68.0038 23.9796 68.0135 21.7658C68.0231 19.7029 69.9452 17.8006 72.0368 17.7957C74.2445 17.786 76.152 19.6835 76.1133 21.8631V21.8583Z" fill="#E3351E"/>
<path d="M76.1133 132.74C76.1133 135.075 74.2445 136.948 71.9448 136.91C69.8823 136.875 68.0667 135.002 68.0135 132.847C67.9554 130.687 69.9065 128.77 72.1142 128.809C74.2929 128.848 76.1085 130.633 76.1133 132.745V132.74Z" fill="#E3351E"/>
<path d="M72.095 168.573C69.926 168.539 67.9991 166.603 68.0185 164.482C68.0378 162.424 70.1584 160.39 72.2112 160.463C74.3076 160.536 76.1135 162.526 76.1086 164.754C76.1086 166.9 74.3076 168.612 72.095 168.578V168.573Z" fill="#E3351E"/>
<path d="M72.2352 89.3067C70.0565 89.3407 68.1005 87.5065 68.0182 85.356C67.9408 83.3272 69.9887 81.2253 72.0706 81.1961C74.1379 81.1669 76.0358 83.1179 76.1084 85.3463C76.1762 87.5016 74.4429 89.2775 72.24 89.3067H72.2352Z" fill="#E3351E"/>
<path d="M76.0939 101.261C76.0842 103.48 74.2396 105.367 72.0706 105.382C69.9597 105.392 67.9747 103.368 68.0183 101.251C68.0619 99.1835 70.0662 97.3054 72.2594 97.2762C74.4333 97.2471 76.0988 98.9791 76.0891 101.261H76.0939Z" fill="#E3351E"/>
<path d="M72.1918 57.6283C70.0809 57.5748 68.2557 55.58 68.2751 53.3468C68.2944 51.2936 70.2213 49.508 72.3855 49.5372C74.5254 49.5664 76.4524 51.6196 76.3458 53.7555C76.2442 55.7795 74.2107 57.677 72.1918 57.6283Z" fill="#E3351E"/>
<path d="M76.0941 37.7485C76.128 39.9769 74.3366 41.8938 72.1628 41.9522C70.0374 42.0106 68.0378 40.0693 68.0184 37.9237C67.9991 35.817 70.1197 33.8076 72.3467 33.827C74.4044 33.8465 76.0602 35.5737 76.0892 37.7485H76.0941Z" fill="#E3351E"/>
<path d="M72.4047 192.234C74.4575 192.272 76.336 194.199 76.3457 196.272C76.3554 198.335 74.2542 200.393 72.1965 200.339C70.105 200.286 68.2071 198.208 68.2894 196.063C68.3718 193.985 70.2987 192.19 72.3999 192.229L72.4047 192.234Z" fill="#E3351E"/>
<path d="M61.0272 196.218C60.9981 196.369 60.9594 196.797 60.8432 197.201C60.2283 199.371 59.8652 199.532 57.8947 198.544C56.3793 197.785 54.8543 197.055 53.3582 196.257C51.9494 195.508 51.7702 194.613 52.6804 193.309C53.731 191.801 55.9969 191.105 57.8947 191.708C59.7539 192.302 61.0417 194.044 61.0223 196.213L61.0272 196.218Z" fill="#E3351E"/>
<path d="M83.6176 109.041C83.5692 111.045 81.7779 112.782 79.8413 112.69C77.9482 112.602 76.2876 110.817 76.3602 108.953C76.4328 107.036 78.1758 105.353 80.0349 105.392C81.957 105.436 83.6612 107.168 83.6176 109.036V109.041Z" fill="#E3351E"/>
<path d="M80.0302 137.338C81.8942 137.299 83.5452 138.88 83.6033 140.763C83.6614 142.699 81.8894 144.577 79.9624 144.611C78.2001 144.645 76.433 142.943 76.37 141.157C76.3023 139.23 78.0743 137.381 80.0302 137.338Z" fill="#E3351E"/>
<path d="M83.6033 188.375C83.6517 190.263 82.0976 191.903 80.1997 191.956C78.2437 192.015 76.404 190.268 76.3652 188.322C76.3314 186.556 78.0307 184.756 79.793 184.683C81.6667 184.605 83.55 186.434 83.6033 188.38V188.375Z" fill="#E3351E"/>
<path d="M83.6031 29.6233C83.6515 31.5402 81.8359 33.4085 79.9139 33.4134C78.1564 33.4183 76.4086 31.6959 76.365 29.9201C76.3215 27.9982 78.1273 26.1445 80.0543 26.1348C81.8505 26.1251 83.5595 27.8036 83.6031 29.6233Z" fill="#E3351E"/>
<path d="M80.0737 57.9106C81.9765 57.8863 83.5887 59.4432 83.6129 61.3358C83.6419 63.3161 81.9232 65.0579 79.914 65.0822C77.9774 65.1114 76.3409 63.5642 76.3506 61.7056C76.3603 59.8033 78.1952 57.9301 80.0689 57.9058L80.0737 57.9106Z" fill="#E3351E"/>
<path d="M76.6023 13.8497C76.6991 11.8743 78.3985 10.2298 80.2576 10.3126C82.1216 10.3953 83.6757 12.069 83.6177 13.9275C83.5499 15.9126 81.6714 17.7177 79.8219 17.5717C77.9337 17.4209 76.5055 15.7715 76.6023 13.8497Z" fill="#E3351E"/>
<path d="M80.0689 175.862C78.0403 175.867 76.3216 174.256 76.3555 172.388C76.3942 170.583 78.2582 168.822 80.1028 168.851C81.8264 168.875 83.5451 170.52 83.6081 172.203C83.6758 174.1 81.9765 175.857 80.0641 175.862H80.0689Z" fill="#E3351E"/>
<path d="M83.6129 93.2427C83.5596 95.0916 81.8651 96.8674 80.1512 96.8674C78.3114 96.8674 76.5588 95.0381 76.5976 93.1649C76.6411 91.2334 78.2291 89.5645 80.0157 89.5743C81.8651 89.584 83.6662 91.4182 83.6129 93.2427Z" fill="#E3351E"/>
<path d="M80.0786 49.0799C78.1517 49.114 76.3361 47.4062 76.3603 45.5769C76.3846 43.7669 78.2243 42.0008 80.0786 42.0105C81.7925 42.0154 83.5306 43.655 83.6129 45.3384C83.6952 47.1338 81.8845 49.0507 80.0786 49.0848V49.0799Z" fill="#E3351E"/>
<path d="M83.6177 77.1676C83.6564 79.0895 81.9813 80.914 80.1318 80.9772C78.2485 81.0405 76.6217 79.4544 76.5927 77.5325C76.5636 75.528 78.142 73.8008 80.0398 73.7619C81.9522 73.7181 83.579 75.275 83.6177 77.1725V77.1676Z" fill="#E3351E"/>
<path d="M76.6023 156.502C76.704 154.532 78.2823 152.96 80.1076 153.019C81.9909 153.077 83.7193 154.931 83.608 156.77C83.4918 158.658 81.7779 160.341 80.0398 160.273C78.0741 160.195 76.5055 158.473 76.6071 156.507L76.6023 156.502Z" fill="#E3351E"/>
<path d="M80.185 121.501C82.1894 121.54 83.8597 123.209 83.7726 125.087C83.6854 126.945 81.8699 128.57 79.9623 128.502C78.1758 128.439 76.5975 126.828 76.6023 125.077C76.6023 123.102 78.2533 121.457 80.1899 121.496L80.185 121.501Z" fill="#E3351E"/>
<path d="M76.0504 6.42032C76.065 8.46864 74.6464 10.0304 72.6081 10.2007C70.7393 10.3613 68.7446 8.89193 68.3912 7.11121C68.1975 6.15273 68.6187 5.59321 69.4805 5.29156C70.628 4.8926 71.7657 4.47904 72.9228 4.10441C75.392 3.30649 76.0311 3.78816 76.0456 6.42032H76.0504Z" fill="#E3351E"/>
<path d="M80.7805 207C78.8052 207 76.6749 205.526 76.6313 204.134C76.5781 202.461 78.2871 200.792 80.0688 200.768C81.9618 200.743 83.6273 202.475 83.6128 204.451C83.6031 205.721 82.1797 207 80.7805 207Z" fill="#E3351E"/>
<path d="M90.9963 69.6847C90.9333 71.5336 89.6358 72.7159 87.767 72.6283C86.0482 72.5504 84.8572 71.4557 84.8621 69.9572C84.8621 68.5998 86.6341 66.3276 87.6895 66.3276C89.6455 66.3276 91.0689 67.7678 91.0011 69.6847H90.9963Z" fill="#E3351E"/>
<path d="M87.8832 120.134C86.0337 120.119 84.8137 119.024 84.8669 117.438C84.9153 116.071 86.7261 113.809 87.7428 113.852C89.6261 113.935 91.006 115.322 91.0011 117.112C90.9963 119.005 89.8149 120.148 87.888 120.134H87.8832Z" fill="#E3351E"/>
<path d="M87.6217 2.99998C88.8515 3.01944 91.1512 4.77097 91.1657 5.69053C91.1948 7.5345 89.6503 9.20819 87.9267 9.19359C86.116 9.179 84.8621 7.87994 84.8911 6.0457C84.9202 4.30876 86.116 2.97079 87.6217 2.99998Z" fill="#E3351E"/>
<path d="M91.0106 164.336C90.9768 165.688 89.3548 167.8 88.3333 167.819C86.4887 167.853 84.8474 166.301 84.8958 164.564C84.9442 162.759 86.2611 161.509 88.067 161.558C89.8148 161.606 91.0494 162.769 91.0106 164.336Z" fill="#E3351E"/>
<path d="M91.0108 21.5954C91.0059 22.8798 89.355 25.1471 88.4012 25.1811C86.605 25.2395 84.8863 23.6583 84.8911 21.9457C84.896 20.1212 86.1741 18.8659 88.0042 18.8805C89.7714 18.8951 91.0156 20.019 91.0108 21.5954Z" fill="#E3351E"/>
<path d="M87.8831 129.626C89.6502 129.65 90.8509 130.774 90.8509 132.404C90.8509 133.951 89.4178 135.927 88.2849 135.936C86.3919 135.951 84.8426 134.443 84.891 132.633C84.9394 130.852 86.1837 129.607 87.8831 129.631V129.626Z" fill="#E3351E"/>
<path d="M87.9798 145.726C89.7131 145.745 90.8993 146.796 90.9138 148.314C90.9235 149.686 88.9723 152.284 87.9024 152.318C86.8808 152.347 84.8571 149.696 84.8667 148.343C84.8813 146.767 86.1401 145.706 87.9798 145.726Z" fill="#E3351E"/>
<path d="M88.1446 56.7915C86.358 56.8207 84.9734 55.5459 84.8959 53.7993C84.8184 52.0477 85.9271 50.7438 87.5152 50.7146C88.9821 50.6903 91.1608 52.3299 91.1657 53.4587C91.1705 55.0935 89.6551 56.7671 88.1446 56.7915Z" fill="#E3351E"/>
<path d="M87.9459 104.136C86.1061 104.102 84.8909 102.857 84.8958 101.003C84.9006 99.3052 85.9851 98.0742 87.4763 98.0645C88.7738 98.0548 91.1607 99.8452 91.1607 100.823C91.1607 102.56 89.6017 104.166 87.9411 104.141L87.9459 104.136Z" fill="#E3351E"/>
<path d="M90.9962 37.8652C90.9671 39.5827 89.8246 40.7212 88.1252 40.7212C86.2757 40.7212 84.833 39.5097 84.862 37.9868C84.8814 36.8873 86.6727 34.6103 87.5297 34.5908C89.3598 34.5519 91.0204 36.1234 90.9962 37.8652Z" fill="#E3351E"/>
<path d="M87.7814 183.554C86.024 183.486 85.0121 182.449 85.0847 180.805C85.1477 179.399 86.7841 177.302 87.8153 177.307C89.5776 177.316 91.1075 178.893 91.0107 180.605C90.9042 182.488 89.6599 183.627 87.7863 183.554H87.7814Z" fill="#E3351E"/>
<path d="M88.1348 88.4747C86.295 88.499 84.891 87.1951 84.9104 85.4728C84.9249 83.7748 85.99 82.5341 87.4715 82.4806C88.9627 82.4319 91.1365 84.0132 91.1607 85.1614C91.1898 86.8108 89.6938 88.4553 88.1348 88.4747Z" fill="#E3351E"/>
<path d="M53.4793 14.0978C53.4939 16.3602 52.1673 17.5717 50.5212 18.501C48.8944 19.4206 47.3548 18.9048 45.8927 17.9853C45.3214 17.6252 45.0551 17.2847 45.8201 16.8176C47.9988 15.4845 50.0903 13.9957 52.3513 12.8231C54.0506 11.9425 53.0194 13.8108 53.4793 14.093V14.0978Z" fill="#E3351E"/>
<path d="M91.0154 196.165C91.0106 197.459 89.2531 199.634 88.2654 199.575C86.4402 199.468 84.8909 198.009 84.8958 196.389C84.8958 194.725 86.203 193.489 87.9653 193.484C89.7034 193.479 91.0203 194.637 91.0154 196.165Z" fill="#E3351E"/>
<path d="M98.2585 77.1434C98.2537 78.1213 96.7722 79.795 95.9395 79.6004C94.7388 79.3182 93.9448 78.4667 93.6688 77.2455C93.5478 76.7103 95.3875 74.0198 95.8087 73.9614C96.2396 73.903 98.2634 76.5303 98.2585 77.1434Z" fill="#E3351E"/>
<path d="M99.2654 204.081C99.2896 204.519 96.8011 206.577 96.2249 206.484C94.9952 206.29 94.0753 205.575 93.7509 204.353C93.5234 203.487 95.0823 201.906 96.0458 201.882C96.6171 201.867 99.2412 203.658 99.2654 204.076V204.081Z" fill="#E3351E"/>
<path d="M95.8618 137.309C98.6941 140.189 98.6893 140.476 97.3724 142.082C96.1814 143.536 95.3729 142.802 94.4626 141.936C93.1748 140.709 93.3782 140.019 95.8618 137.309Z" fill="#E3351E"/>
<path d="M95.9733 158.915C94.9662 158.585 94.2013 157.714 93.7026 156.687C93.4557 156.176 95.5375 154.289 96.1766 154.318C96.7624 154.347 99.3381 156.244 99.2897 156.614C99.2365 157.047 96.6511 158.95 95.9733 158.915Z" fill="#E3351E"/>
<path d="M95.8862 112.451C93.3299 109.673 93.1846 109.075 94.5935 107.678C95.4892 106.788 96.2348 106.438 97.2806 107.591C98.7088 109.167 98.6555 109.556 95.891 112.451H95.8862Z" fill="#E3351E"/>
<path d="M99.4543 61.6132C98.6554 62.2214 98.0018 62.669 97.4112 63.1798C96.1717 64.2551 95.2034 63.7102 94.269 62.7322C93.4266 61.8516 93.5331 61.0148 94.3271 60.1682C95.3196 59.1075 96.3218 58.8886 97.4547 59.9882C98.0163 60.538 98.6748 60.9856 99.4543 61.6083V61.6132Z" fill="#E3351E"/>
<path d="M95.8959 32.0804C95.1067 31.4576 94.0222 30.9662 93.6833 29.7548C93.5284 29.1953 95.2665 26.5631 95.7652 26.4706C96.2009 26.3928 98.1859 28.733 98.2489 29.3947C98.3166 30.0905 96.7189 32.0318 95.891 32.0804H95.8959Z" fill="#E3351E"/>
<path d="M95.8571 89.6912C96.3606 90.3529 96.777 90.8686 97.1643 91.4038C98.3989 93.1018 98.0551 94.3814 96.1911 95.3253C95.1405 95.8556 94.8161 94.8922 94.2836 94.4495C93.5912 93.8803 93.141 93.1358 93.8091 92.2455C94.424 91.4281 95.0824 90.6496 95.8571 89.6912Z" fill="#E3351E"/>
<path d="M98.2341 172.402C98.2535 173.064 96.3943 175.701 95.978 175.774C95.5906 175.847 93.7121 173.337 93.6734 172.694C93.6298 171.999 95.3825 169.95 95.9876 170.159C97.0915 170.549 97.8613 171.41 98.239 172.402H98.2341Z" fill="#E3351E"/>
<path d="M95.8716 184.799C96.4913 185.636 97.0578 186.322 97.5419 187.067C98.3359 188.288 97.2175 190.604 95.7699 190.623C94.8646 190.638 94.4337 189.713 93.8721 189.12C93.3443 188.56 93.3734 187.913 93.8479 187.315C94.4772 186.517 95.126 185.729 95.8716 184.799Z" fill="#E3351E"/>
<path d="M99.2898 124.994C98.4183 125.68 97.6776 126.741 96.4478 127.169C95.833 127.383 93.8286 125.821 93.6785 125.116C93.5574 124.556 95.3391 122.659 96.0218 122.615C96.5398 122.581 99.2075 124.357 99.2898 124.999V124.994Z" fill="#E3351E"/>
<path d="M95.8523 49.187C95.2664 48.394 94.7339 47.6593 94.1819 46.9392C93.5138 46.0781 93.4799 45.2169 94.3562 44.5406C95.0631 43.9957 95.5618 42.6577 96.8641 43.8157C98.4618 45.2315 98.6216 45.7959 97.45 47.2895C96.9658 47.9074 96.4381 48.4961 95.8523 49.187Z" fill="#E3351E"/>
<path d="M95.8909 16.1948C94.8257 15.9175 94.1479 14.9639 93.6541 13.9227C93.4169 13.4216 95.3486 11.709 96.041 11.7041C96.4864 11.7041 99.1976 13.6454 99.2364 13.9957C99.2848 14.419 96.7139 16.2094 95.886 16.1948H95.8909Z" fill="#E3351E"/>
<path d="M62.5718 200.709C65.4622 199.629 66.537 200.062 68.4784 203.083C66.3433 202.324 64.5132 201.75 62.5718 200.709Z" fill="#E3351E"/>
<path d="M105.254 101.232C104.993 102.166 104.402 103.032 103.637 103.076C102.906 103.119 102.442 102.098 102.311 101.353C102.141 100.38 103.018 99.8402 103.729 99.7526C104.596 99.6407 104.896 100.575 105.254 101.232Z" fill="#E3351E"/>
<path d="M105.24 117.219C104.92 118.076 104.281 119.015 103.603 118.981C102.926 118.951 102.325 117.915 102.301 117.064C102.272 116.149 103.129 115.58 103.836 115.594C104.601 115.609 105.027 116.446 105.245 117.219H105.24Z" fill="#E3351E"/>
<path d="M105.25 85.5069C104.872 86.3437 104.306 87.3363 103.555 87.2341C102.872 87.1417 102.224 86.1394 102.311 85.2247C102.388 84.4316 103.177 83.8283 103.817 83.8673C104.567 83.9159 105.046 84.709 105.25 85.502V85.5069Z" fill="#E3351E"/>
<path d="M103.768 67.8457C104.581 68.2495 105.613 68.7263 105.738 69.6362C105.801 70.0886 104.727 70.8963 103.908 70.799C103.032 70.6919 102.34 69.9378 102.311 69.0912C102.286 68.4879 102.979 68.0014 103.768 67.8457Z" fill="#E3351E"/>
<path d="M104.015 134.423C103.245 134.146 102.471 133.669 102.475 132.891C102.475 132.244 103.095 131.494 103.879 131.46C104.756 131.421 105.748 132.054 105.772 132.759C105.797 133.47 104.809 134.024 104.015 134.423Z" fill="#E3351E"/>
<path d="M105.274 37.8457C104.998 38.6874 104.625 39.6507 103.763 39.6313C103.081 39.6167 102.364 38.7506 102.325 37.9965C102.282 37.0769 103.182 36.4104 103.933 36.3374C104.552 36.279 105.051 37.1061 105.269 37.8457H105.274Z" fill="#E3351E"/>
<path d="M105.1 53.8724C104.819 54.607 104.509 55.619 103.729 55.5412C102.979 55.4633 102.267 54.5681 102.127 53.7702C101.996 53.0452 102.742 52.2619 103.381 52.2425C104.233 52.2181 104.727 53.0696 105.095 53.8724H105.1Z" fill="#E3351E"/>
<path d="M105.284 148.703C104.993 149.74 104.344 150.654 103.642 150.659C102.872 150.669 102.359 149.603 102.306 148.771C102.253 147.939 103.056 147.394 103.71 147.317C104.606 147.214 104.819 148.217 105.288 148.703H105.284Z" fill="#E3351E"/>
<path d="M105.956 164.404C105.409 165.182 104.857 165.975 104.044 166.053C103.235 166.131 102.48 165.328 102.446 164.623C102.412 164.024 103.085 163.236 103.855 163.163C104.756 163.08 105.298 163.854 105.961 164.404H105.956Z" fill="#E3351E"/>
<path d="M106 22.1354C105.288 22.7679 104.703 23.5318 103.831 23.4345C103.013 23.342 102.374 22.5344 102.471 21.79C102.548 21.1867 103.265 20.4666 104.049 20.5736C104.916 20.6953 105.342 21.5565 106 22.1354Z" fill="#E3351E"/>
<path d="M105.274 195.897C104.993 196.88 104.31 197.522 103.633 197.61C102.994 197.697 102.282 196.914 102.33 196.184C102.383 195.347 103.023 194.408 103.788 194.365C104.465 194.326 104.848 195.352 105.274 195.892V195.897Z" fill="#E3351E"/>
<path d="M104.054 179.044C104.809 179.311 105.802 179.803 105.777 180.435C105.748 181.17 104.848 181.982 104.001 181.948C103.226 181.914 102.514 181.048 102.495 180.338C102.48 179.715 103.216 179.126 104.054 179.039V179.044Z" fill="#E3351E"/>
<path d="M105.259 5.64686C105.061 6.50317 104.572 7.26703 103.807 7.32055C103.124 7.3692 102.432 6.62967 102.364 5.93878C102.277 5.05815 102.974 4.17266 103.734 4.09481C104.446 4.02183 104.896 4.96571 105.259 5.64686Z" fill="#E3351E"/>
</svg>
