          <svg
            id="zakia"
            width="975"
            height="230"
            viewBox="0 0 975 230"
            fill="none"
            xmlns="http://www.w3.org/2000/svg"
          >
            <path
              d="M51.5 123C54.3333 120.5 57.75 116.583 61.75 111.25C65.75 105.75 69.1667 99.8333 72 93.5L74.25 95.75C71.0833 101.75 67.5 107.417 63.5 112.75C59.5 118.083 56.0833 121.917 53.25 124.25C53.0833 124.25 52.75 124.083 52.25 123.75C51.5833 123.417 51.3333 123.167 51.5 123ZM77.25 76.5C78.5833 76.5 79.8333 76.75 81 77.25C82.3333 77.75 83 78.5833 83 79.75C83 82.25 82.4167 84.0833 81.25 85.25C80.0833 86.25 78.9167 87.1667 77.75 88C76.5833 88.8333 76 90.25 76 92.25C76 94.9167 77.5 98 80.5 101.5C83.5 104.833 88.9167 106.5 96.75 106.5C101.25 106.5 105.833 105.75 110.5 104.25C115.167 102.583 119.083 100.583 122.25 98.25C125.417 95.75 127 93.3333 127 91C127 90.1667 126.5 89.4167 125.5 88.75C124.667 87.9167 123.25 87.5 121.25 87.5C117.417 87.5 114 89.25 111 92.75C108 96.0833 105.25 100.25 102.75 105.25C100.417 110.25 98.1667 115.167 96 120C93.8333 124.667 91.6667 128.417 89.5 131.25C84.6667 137.417 80.4167 142.083 76.75 145.25C73.25 148.417 69.9167 150.75 66.75 152.25C63.75 153.917 60.8333 155.333 58 156.5C55.1667 157.833 52.0833 159.75 48.75 162.25C48.0833 162.75 47.25 162.667 46.25 162C45.0833 161.5 44.75 161 45.25 160.5C45.9167 159.667 47.5 158.667 50 157.5C52.5 156.333 54.5833 155.25 56.25 154.25C60.0833 151.75 63.4167 148.5 66.25 144.5C69.0833 140.5 71.5833 136.417 73.75 132.25C75.9167 128.083 77.75 124.583 79.25 121.75C82.25 116.25 86 110.75 90.5 105.25C95 99.5833 99.8333 94.9167 105 91.25C110.333 87.4167 115.5 85.5 120.5 85.5C123.333 85.5 125.667 86 127.5 87C129.333 87.8333 130.25 89.1667 130.25 91C130.25 93.6667 128.583 96.3333 125.25 99C122.083 101.667 117.917 103.917 112.75 105.75C107.75 107.583 102.417 108.5 96.75 108.5C88.9167 108.5 83 107.25 79 104.75C75 102.083 72.25 99.1667 70.75 96C69.4167 92.6667 68.75 90 68.75 88C68.75 85.1667 69.5833 82.5833 71.25 80.25C73.0833 77.75 75.0833 76.5 77.25 76.5ZM125.75 114.75L127.75 116.25C118.083 129.25 108.583 139.833 99.25 148C89.9167 156 81.25 162 73.25 166C70.9167 167.167 67 169.25 61.5 172.25C56.1667 175.25 50.25 178.75 43.75 182.75C37.0833 186.75 30.75 191 24.75 195.5C18.5833 200.167 13.5833 204.75 9.75 209.25C5.75 213.75 3.75 217.833 3.75 221.5C3.75 225.167 5.66666 227 9.5 227C12.5 227 16.4167 225.667 21.25 223C26.0833 220.333 31.1667 216.667 36.5 212C41.8333 207.5 46.9167 202.333 51.75 196.5C56.4167 190.833 60.25 184.917 63.25 178.75C66.25 172.75 67.75 166.917 67.75 161.25C67.75 158.25 66.9167 156.25 65.25 155.25C63.75 154.417 62.25 154 60.75 154C60.9167 154 60.75 153.833 60.25 153.5C59.9167 153.333 59.8333 153.083 60 152.75C60.3333 152.583 61.4167 152.5 63.25 152.5C67.0833 152.5 70.3333 153.833 73 156.5C75.8333 159.167 77.25 163.667 77.25 170C77.25 174.167 75.75 178.833 72.75 184C69.9167 189.333 66.0833 194.583 61.25 199.75C56.4167 205.083 51.0833 210 45.25 214.5C39.25 219 33.25 222.583 27.25 225.25C21.0833 228.083 15.3333 229.5 10 229.5C3.83333 229.5 0.749996 226.833 0.749996 221.5C0.749996 217.5 2.83333 213.167 7 208.5C11 203.833 16.1667 199.083 22.5 194.25C28.8333 189.583 35.4167 185.167 42.25 181C48.9167 176.833 55 173.167 60.5 170C66.1667 167 70.1667 164.917 72.5 163.75C80 159.917 88.3333 154.083 97.5 146.25C106.667 138.417 116.083 127.917 125.75 114.75ZM179.639 108.25C178.972 109.583 177.972 110.75 176.639 111.75C175.472 112.75 174.555 113.417 173.889 113.75C173.389 113.917 173.555 113.417 174.389 112.25C177.389 108.583 179.305 105.167 180.139 102C181.139 98.8333 181.139 96.3333 180.139 94.5C179.305 92.5 177.639 91.5 175.139 91.5C171.805 91.5 167.889 92.8333 163.389 95.5C158.889 98.1667 154.222 101.667 149.389 106C144.722 110.333 140.305 115 136.139 120C132.139 124.833 128.889 129.583 126.389 134.25C123.889 138.75 122.639 142.667 122.639 146C122.639 148.5 123.139 150.083 124.139 150.75C125.139 151.417 126.139 151.75 127.139 151.75C130.972 151.75 135.389 150 140.389 146.5C145.555 142.833 150.805 138.25 156.139 132.75C161.472 127.25 166.555 121.667 171.389 116C176.222 110.167 180.389 104.917 183.889 100.25C187.555 95.5833 190.055 92.4167 191.389 90.75C193.222 91.4167 195.389 91.6667 197.889 91.5C200.555 91.3333 202.805 91.1667 204.639 91C204.305 91.5 202.555 93.5833 199.389 97.25C196.389 100.917 192.722 105.333 188.389 110.5C184.222 115.5 179.972 120.667 175.639 126C171.472 131.333 167.972 136 165.139 140C162.305 144 160.889 146.667 160.889 148C160.889 149.667 161.222 150.75 161.889 151.25C162.722 151.583 163.972 151.75 165.639 151.75C167.639 151.583 170.555 150.667 174.389 149C178.222 147.167 183.139 143.667 189.139 138.5C195.139 133.333 202.389 125.667 210.889 115.5C210.889 115.5 211.222 115.75 211.889 116.25C212.722 116.75 213.139 117 213.139 117C203.139 128.667 193.889 137.833 185.389 144.5C176.889 151 169.139 154.25 162.139 154.25C158.472 154.25 155.972 153.667 154.639 152.5C153.472 151.333 152.889 149.667 152.889 147.5C152.889 145.833 153.555 143.833 154.889 141.5C156.389 139 158.055 136.583 159.889 134.25C161.722 131.917 163.222 130.083 164.389 128.75C164.389 128.75 164.222 128.667 163.889 128.5C163.555 128.333 163.389 128.25 163.389 128.25C159.555 132.917 155.472 137.25 151.139 141.25C146.805 145.25 142.472 148.417 138.139 150.75C133.972 153.083 129.889 154.25 125.889 154.25C121.722 154.25 118.805 153.25 117.139 151.25C115.472 149.083 114.639 145.833 114.639 141.5C114.639 137.333 115.972 132.333 118.639 126.5C121.305 120.5 125.139 114.667 130.139 109C135.139 103.167 141.139 98.3333 148.139 94.5C155.305 90.6667 163.305 88.75 172.139 88.75C176.472 88.75 179.472 89.5833 181.139 91.25C182.805 92.75 183.555 94.5833 183.389 96.75C183.222 98.9167 182.722 101.083 181.889 103.25C181.055 105.417 180.305 107.083 179.639 108.25ZM290.832 0.749995C292.665 1.08332 294.749 1.24999 297.082 1.24999C299.582 1.24999 301.915 1.08332 304.082 0.749995C303.749 1.08332 301.999 3.41666 298.832 7.74999C295.832 11.9167 291.832 17.5 286.832 24.5C281.832 31.5 276.249 39.3333 270.082 48C263.915 56.6667 257.499 65.6667 250.832 75C244.165 84.1667 237.749 93.1667 231.582 102C225.415 110.833 219.749 118.917 214.582 126.25C209.582 133.417 205.499 139.333 202.332 144C199.165 148.667 197.332 151.417 196.832 152.25C193.499 151.083 189.415 151.25 184.582 152.75C184.582 152.75 186.082 150.667 189.082 146.5C192.082 142.167 196.165 136.417 201.332 129.25C206.332 121.917 211.915 113.75 218.082 104.75C224.415 95.75 230.915 86.4167 237.582 76.75C244.415 67.0833 250.915 57.75 257.082 48.75C263.415 39.75 269.082 31.6667 274.082 24.5C279.249 17.1667 283.332 11.4167 286.332 7.24999C289.332 2.91666 290.832 0.749995 290.832 0.749995ZM284.332 97.25C282.665 97.25 281.165 96.75 279.832 95.75C278.665 94.75 278.082 93.4167 278.082 91.75C278.082 89.9167 278.665 88.5833 279.832 87.75C281.165 86.9167 281.832 86.5 281.832 86.5C281.499 86 280.832 85.75 279.832 85.75C278.832 85.5833 277.915 85.5 277.082 85.5C273.915 85.5 270.832 87 267.832 90C264.832 92.8333 261.749 96.25 258.582 100.25C255.415 104.083 251.999 107.5 248.332 110.5C244.665 113.333 240.415 114.75 235.582 114.75C233.582 114.75 231.915 114.583 230.582 114.25C229.415 113.75 228.832 112.833 228.832 111.5C228.832 110.167 229.832 109.167 231.832 108.5C233.999 107.667 236.082 107.25 238.082 107.25C242.082 107.25 245.582 108 248.582 109.5C251.749 110.833 254.165 112.583 255.832 114.75C257.499 116.75 258.332 118.917 258.332 121.25C258.332 124.75 257.415 128 255.582 131C253.915 133.833 251.999 136.417 249.832 138.75C247.665 141.083 245.665 143.167 243.832 145C242.165 146.667 241.332 148 241.332 149C241.332 149.833 241.749 150.5 242.582 151C243.415 151.333 244.832 151.5 246.832 151.5C250.332 151.5 254.082 150.417 258.082 148.25C262.249 145.917 266.415 142.917 270.582 139.25C274.915 135.583 279.082 131.667 283.082 127.5C287.082 123.167 290.665 119 293.832 115L295.832 116.75C291.165 121.917 285.915 127.417 280.082 133.25C274.415 139.083 268.582 144.083 262.582 148.25C256.582 152.25 250.749 154.25 245.082 154.25C242.249 154.25 239.832 153.583 237.832 152.25C235.999 151.083 235.082 148.833 235.082 145.5C235.082 142.333 235.915 139.333 237.582 136.5C239.249 133.5 241.165 130.75 243.332 128.25C245.499 125.583 247.415 123.333 249.082 121.5C250.749 119.667 251.582 118.25 251.582 117.25C251.582 114.917 250.499 113.417 248.332 112.75C246.165 112.083 243.832 111.833 241.332 112C238.999 112 237.415 112 236.582 112C235.415 112 234.249 112 233.082 112C231.915 112 231.332 111.833 231.332 111.5C231.332 111 231.999 110.75 233.332 110.75C234.832 110.75 235.915 110.75 236.582 110.75C241.082 110.75 244.999 109.333 248.332 106.5C251.665 103.667 254.832 100.417 257.832 96.75C260.999 92.9167 264.249 89.5833 267.582 86.75C271.082 83.9167 275.249 82.5 280.082 82.5C283.082 82.5 285.582 83.25 287.582 84.75C289.582 86.0833 290.582 88 290.582 90.5C290.582 92.5 289.832 94.1667 288.332 95.5C286.999 96.6667 285.665 97.25 284.332 97.25ZM288.596 154.25C286.262 154.25 283.679 153.583 280.846 152.25C277.846 151.083 276.346 149.083 276.346 146.25C276.346 142.75 277.929 138.333 281.096 133C284.262 127.667 288.179 122.167 292.846 116.5C297.346 110.833 301.762 105.5 306.096 100.5C310.429 95.5 313.679 91.5833 315.846 88.75C317.679 88.9167 319.846 89 322.346 89C325.012 89 327.346 88.9167 329.346 88.75C327.012 91.5833 323.929 95.1667 320.096 99.5C316.429 103.833 312.512 108.5 308.346 113.5C304.346 118.333 300.429 123.083 296.596 127.75C292.929 132.417 289.929 136.583 287.596 140.25C285.262 143.917 284.096 146.583 284.096 148.25C284.096 149.417 284.596 150.25 285.596 150.75C286.596 151.25 288.262 151.5 290.596 151.5C294.596 151.5 299.012 150 303.846 147C308.846 143.833 313.679 140.083 318.346 135.75C323.012 131.417 327.179 127.333 330.846 123.5C334.512 119.5 337.096 116.583 338.596 114.75L340.596 116.5C339.096 118.167 336.512 121.083 332.846 125.25C329.346 129.25 325.096 133.5 320.096 138C315.262 142.5 310.096 146.333 304.596 149.5C299.262 152.667 293.929 154.25 288.596 154.25ZM338.596 69.75C336.596 69.75 335.096 69.1667 334.096 68C333.096 66.6667 332.596 65.1667 332.596 63.5C332.596 61.6667 333.596 59.75 335.596 57.75C337.596 55.75 339.679 54.75 341.846 54.75C344.179 54.75 345.846 55.4167 346.846 56.75C347.846 57.9167 348.346 59.0833 348.346 60.25C348.346 62.75 347.346 65 345.346 67C343.346 68.8333 341.096 69.75 338.596 69.75ZM392.773 108.25C392.107 109.583 391.107 110.75 389.773 111.75C388.607 112.75 387.69 113.417 387.023 113.75C386.523 113.917 386.69 113.417 387.523 112.25C390.523 108.583 392.44 105.167 393.273 102C394.273 98.8333 394.273 96.3333 393.273 94.5C392.44 92.5 390.773 91.5 388.273 91.5C384.94 91.5 381.023 92.8333 376.523 95.5C372.023 98.1667 367.357 101.667 362.523 106C357.857 110.333 353.44 115 349.273 120C345.273 124.833 342.023 129.583 339.523 134.25C337.023 138.75 335.773 142.667 335.773 146C335.773 148.5 336.273 150.083 337.273 150.75C338.273 151.417 339.273 151.75 340.273 151.75C344.107 151.75 348.523 150 353.523 146.5C358.69 142.833 363.94 138.25 369.273 132.75C374.607 127.25 379.69 121.667 384.523 116C389.357 110.167 393.523 104.917 397.023 100.25C400.69 95.5833 403.19 92.4167 404.523 90.75C406.357 91.4167 408.523 91.6667 411.023 91.5C413.69 91.3333 415.94 91.1667 417.773 91C417.44 91.5 415.69 93.5833 412.523 97.25C409.523 100.917 405.857 105.333 401.523 110.5C397.357 115.5 393.107 120.667 388.773 126C384.607 131.333 381.107 136 378.273 140C375.44 144 374.023 146.667 374.023 148C374.023 149.667 374.357 150.75 375.023 151.25C375.857 151.583 377.107 151.75 378.773 151.75C380.773 151.583 383.69 150.667 387.523 149C391.357 147.167 396.273 143.667 402.273 138.5C408.273 133.333 415.523 125.667 424.023 115.5C424.023 115.5 424.357 115.75 425.023 116.25C425.857 116.75 426.273 117 426.273 117C416.273 128.667 407.023 137.833 398.523 144.5C390.023 151 382.273 154.25 375.273 154.25C371.607 154.25 369.107 153.667 367.773 152.5C366.607 151.333 366.023 149.667 366.023 147.5C366.023 145.833 366.69 143.833 368.023 141.5C369.523 139 371.19 136.583 373.023 134.25C374.857 131.917 376.357 130.083 377.523 128.75C377.523 128.75 377.357 128.667 377.023 128.5C376.69 128.333 376.523 128.25 376.523 128.25C372.69 132.917 368.607 137.25 364.273 141.25C359.94 145.25 355.607 148.417 351.273 150.75C347.107 153.083 343.023 154.25 339.023 154.25C334.857 154.25 331.94 153.25 330.273 151.25C328.607 149.083 327.773 145.833 327.773 141.5C327.773 137.333 329.107 132.333 331.773 126.5C334.44 120.5 338.273 114.667 343.273 109C348.273 103.167 354.273 98.3333 361.273 94.5C368.44 90.6667 376.44 88.75 385.273 88.75C389.607 88.75 392.607 89.5833 394.273 91.25C395.94 92.75 396.69 94.5833 396.523 96.75C396.357 98.9167 395.857 101.083 395.023 103.25C394.19 105.417 393.44 107.083 392.773 108.25ZM498.918 119.25C498.251 119.917 497.751 120 497.418 119.5C497.085 118.833 497.001 118.167 497.168 117.5C500.001 114.667 502.751 111.333 505.418 107.5C508.251 103.667 510.585 100.083 512.418 96.75C514.418 93.4167 515.585 91.1667 515.918 90C516.251 90 516.751 89.75 517.418 89.25C518.251 88.75 519.001 88.5833 519.668 88.75C519.501 89.9167 519.251 91 518.918 92C518.751 93 519.335 93.9167 520.668 94.75C522.001 95.5833 524.751 96.4167 528.918 97.25C533.085 98.0833 539.418 99 547.918 100C548.751 100.167 549.335 100.5 549.668 101C550.168 101.333 549.918 101.917 548.918 102.75C545.751 105.25 542.251 108.417 538.418 112.25C534.585 116.083 530.835 120.167 527.168 124.5C523.668 128.667 520.751 132.75 518.418 136.75C516.251 140.75 515.168 144.083 515.168 146.75C515.168 149.75 516.501 151.25 519.168 151.25C522.501 151.25 526.251 149.917 530.418 147.25C534.751 144.583 539.085 141.333 543.418 137.5C547.751 133.5 551.751 129.5 555.418 125.5C559.251 121.333 562.418 117.917 564.918 115.25L566.918 116.75C564.585 119.083 561.585 122.333 557.918 126.5C554.251 130.667 550.085 134.917 545.418 139.25C540.918 143.417 536.085 147 530.918 150C525.751 152.833 520.418 154.25 514.918 154.25C511.751 154.25 508.918 153.5 506.418 152C503.918 150.667 502.668 148.167 502.668 144.5C502.668 141 504.168 137.333 507.168 133.5C510.168 129.667 513.918 125.833 518.418 122C522.918 118 527.585 114.25 532.418 110.75C537.418 107.083 541.835 103.75 545.668 100.75L547.418 103C545.751 102.333 542.835 101.75 538.668 101.25C534.501 100.583 530.168 99.75 525.668 98.75C521.168 97.5833 517.251 96.0833 513.918 94.25C510.751 92.4167 509.168 89.9167 509.168 86.75C509.168 85.0833 509.835 83.0833 511.168 80.75C512.668 78.25 514.668 77 517.168 77C519.501 77 521.085 77.5 521.918 78.5C522.751 79.3333 523.168 80.5 523.168 82C523.168 83 522.335 85.0833 520.668 88.25C519.001 91.25 516.918 94.8333 514.418 99C511.918 103 509.251 106.833 506.418 110.5C503.751 114.167 501.251 117.083 498.918 119.25ZM607.842 88.25C616.175 88.25 620.342 92.25 620.342 100.25C620.342 106.417 618.925 112.75 616.092 119.25C613.258 125.583 609.425 131.417 604.592 136.75C599.758 141.917 594.508 146.167 588.842 149.5C583.175 152.667 577.425 154.25 571.592 154.25C567.092 154.25 563.342 153.167 560.342 151C557.175 148.667 555.592 144.917 555.592 139.75C555.592 134.917 557.008 129.583 559.842 123.75C562.675 117.75 566.508 112.083 571.342 106.75C576.342 101.417 581.925 97 588.092 93.5C594.425 90 601.008 88.25 607.842 88.25ZM610.592 91.75C607.758 91.75 604.425 93 600.592 95.5C596.758 98 592.842 101.25 588.842 105.25C584.842 109.25 581.092 113.583 577.592 118.25C574.258 122.75 571.508 127.167 569.342 131.5C567.342 135.833 566.342 139.5 566.342 142.5C566.342 145.833 567.258 148.167 569.092 149.5C570.925 150.667 573.008 151.25 575.342 151.25C579.175 151.25 583.508 149.667 588.342 146.5C593.175 143.167 597.842 139 602.342 134C606.842 129 610.508 123.75 613.342 118.25C616.342 112.583 617.842 107.417 617.842 102.75C617.842 98.4167 617.092 95.5 615.592 94C614.092 92.5 612.425 91.75 610.592 91.75ZM615.092 117.5C615.925 117.5 616.258 117.833 616.092 118.5C616.092 119 615.675 119.25 614.842 119.25C614.175 119.25 613.175 120.167 611.842 122C610.675 123.667 609.592 125.417 608.592 127.25C607.592 129.083 607.092 130.083 607.092 130.25C607.092 134.083 608.508 136 611.342 136C614.008 136 617.008 134.75 620.342 132.25C623.842 129.75 627.175 126.917 630.342 123.75C633.675 120.417 636.342 117.5 638.342 115L640.342 116.75C638.175 119.25 635.425 122.25 632.092 125.75C628.758 129.083 625.258 132.083 621.592 134.75C617.925 137.25 614.508 138.5 611.342 138.5C608.675 138.5 606.842 137.917 605.842 136.75C604.842 135.583 604.342 133.5 604.342 130.5C604.342 126.5 605.675 123.333 608.342 121C611.175 118.667 613.425 117.5 615.092 117.5ZM705.328 88.75C706.995 88.9167 709.161 89.1667 711.828 89.5C714.661 89.6667 717.411 89.5 720.078 89C713.911 95.6667 707.745 102.25 701.578 108.75C695.578 115.083 690.078 121.083 685.078 126.75C680.078 132.25 675.995 136.917 672.828 140.75C669.828 144.583 668.328 147.25 668.328 148.75C668.328 149.917 668.578 150.667 669.078 151C669.745 151.333 670.578 151.5 671.578 151.5C674.245 151.5 677.911 150.333 682.578 148C687.245 145.667 692.328 142.667 697.828 139C703.328 135.167 708.578 131.083 713.578 126.75C718.745 122.25 722.995 117.833 726.328 113.5C729.828 109.167 731.911 105.25 732.578 101.75C733.078 98.75 733.328 95.6667 733.328 92.5C733.328 91.1667 733.828 89.5833 734.828 87.75C735.995 85.9167 737.911 85 740.578 85C742.411 85 743.828 85.5 744.828 86.5C745.828 87.5 746.328 89.1667 746.328 91.5C746.328 95.5 744.328 100.25 740.328 105.75C736.495 111.083 731.495 116.583 725.328 122.25C719.161 127.917 712.578 133.167 705.578 138C698.578 142.833 691.911 146.75 685.578 149.75C679.411 152.75 674.328 154.25 670.328 154.25C667.161 154.25 665.161 153.5 664.328 152C663.661 150.667 663.328 148.75 663.328 146.25C663.328 142.417 664.911 137.833 668.078 132.5C671.411 127 675.411 121.5 680.078 116C684.745 110.333 689.411 105.083 694.078 100.25C698.745 95.4167 702.495 91.5833 705.328 88.75ZM721.578 120.5L723.578 122C721.911 123.5 720.495 125.083 719.328 126.75C718.328 128.25 717.828 129.917 717.828 131.75C717.828 134.417 719.411 135.75 722.578 135.75C725.578 135.75 728.745 134.5 732.078 132C735.578 129.5 738.995 126.583 742.328 123.25C745.661 119.917 748.495 117.167 750.828 115L752.828 116.5C750.495 119 747.578 122 744.078 125.5C740.745 128.833 737.161 131.75 733.328 134.25C729.495 136.75 725.911 138 722.578 138C717.745 138 715.328 136 715.328 132C715.328 129.667 715.745 127.833 716.578 126.5C717.411 125 719.078 123 721.578 120.5ZM663.328 88.75C664.328 89.0833 666.328 89.3333 669.328 89.5C672.328 89.6667 675.245 89.5 678.078 89C675.411 92 671.911 95.75 667.578 100.25C663.411 104.583 658.911 109.333 654.078 114.5C649.245 119.5 644.661 124.417 640.328 129.25C635.995 133.917 632.495 138.083 629.828 141.75C626.995 145.417 625.578 148 625.578 149.5C625.578 150.833 626.411 151.5 628.078 151.5C631.911 151.5 636.995 149.667 643.328 146C649.661 142.167 656.411 137.333 663.578 131.5C670.745 125.5 677.245 119.167 683.078 112.5C683.078 112.667 683.161 113 683.328 113.5C683.661 113.833 683.495 114.667 682.828 116C682.161 117.167 680.495 119.167 677.828 122C672.995 127.167 667.495 132.25 661.328 137.25C655.328 142.083 649.328 146.167 643.328 149.5C637.495 152.667 632.245 154.25 627.578 154.25C623.411 154.25 621.328 152.167 621.328 148C621.328 144.167 622.661 139.833 625.328 135C627.828 130 630.995 125 634.828 120C638.661 114.833 642.578 110.083 646.578 105.75C650.745 101.25 654.328 97.5 657.328 94.5C660.495 91.3333 662.495 89.4167 663.328 88.75ZM830.383 0.499998C832.216 0.833327 834.466 0.999992 837.133 0.999992C839.966 0.999992 842.216 0.833327 843.883 0.499998L756.883 121.75C754.216 125.75 751.633 129.5 749.133 133C746.633 136.5 744.633 139.583 743.133 142.25C741.466 144.75 740.633 146.75 740.633 148.25C740.633 149.417 741.133 150.25 742.133 150.75C742.966 151.25 744.216 151.5 745.883 151.5C749.716 151.5 753.966 150.167 758.633 147.5C763.299 144.667 767.883 141.167 772.383 137C777.049 132.833 781.299 128.75 785.133 124.75C789.133 120.75 792.299 117.5 794.633 115L796.383 116.5C794.216 118.833 791.216 122.083 787.383 126.25C783.549 130.417 779.133 134.667 774.133 139C769.299 143.167 764.216 146.75 758.883 149.75C753.716 152.75 748.633 154.25 743.633 154.25C740.966 154.25 738.716 153.5 736.883 152C734.883 150.5 733.883 148.333 733.883 145.5C733.883 143.667 734.549 141.333 735.883 138.5C737.216 135.667 738.883 132.75 740.883 129.75C742.716 126.583 744.549 123.75 746.383 121.25C748.049 118.583 749.383 116.583 750.383 115.25L830.383 0.499998ZM806.078 154.25C798.245 154.25 793.078 152.5 790.578 149C788.078 145.333 786.828 141.5 786.828 137.5C786.828 130.667 788.578 124.333 792.078 118.5C795.578 112.5 800.078 107.167 805.578 102.5C811.078 97.8333 816.745 94.25 822.578 91.75C828.578 89.0833 833.911 87.75 838.578 87.75C841.911 87.75 844.578 88.25 846.578 89.25C848.578 90.0833 849.578 91.9167 849.578 94.75C849.578 97.4167 847.995 100.25 844.828 103.25C841.661 106.25 837.661 109.167 832.828 112C827.995 114.667 822.911 117.167 817.578 119.5C812.411 121.667 807.661 123.417 803.328 124.75C798.995 126.083 795.828 126.75 793.828 126.75C793.828 126.75 793.828 126.333 793.828 125.5C793.828 124.5 793.828 124 793.828 124C795.328 124.167 797.911 123.667 801.578 122.5C805.411 121.333 809.661 119.833 814.328 118C818.995 116 823.495 113.75 827.828 111.25C832.328 108.75 835.995 106.083 838.828 103.25C841.828 100.417 843.328 97.6667 843.328 95C843.328 93.6667 842.911 92.5 842.078 91.5C841.411 90.5 840.161 90 838.328 90C835.661 90 832.411 91.3333 828.578 94C824.911 96.5 821.161 99.8333 817.328 104C813.495 108.167 809.911 112.583 806.578 117.25C803.245 121.917 800.495 126.417 798.328 130.75C796.328 134.917 795.328 138.417 795.328 141.25C795.328 144.583 796.328 147.083 798.328 148.75C800.328 150.417 803.245 151.25 807.078 151.25C813.745 151.25 819.995 149.667 825.828 146.5C831.828 143.167 837.245 139.333 842.078 135C846.911 130.5 850.995 126.333 854.328 122.5C857.661 118.5 859.911 115.917 861.078 114.75C861.078 114.75 861.328 115 861.828 115.5C862.495 116 862.828 116.25 862.828 116.25C861.661 117.583 859.411 120.25 856.078 124.25C852.745 128.25 848.578 132.583 843.578 137.25C838.578 141.917 832.911 145.917 826.578 149.25C820.245 152.583 813.411 154.25 806.078 154.25ZM910.74 44C912.24 44.6667 914.407 45 917.24 45C920.24 44.8333 922.574 44.5833 924.24 44.25C918.907 51.5833 912.99 59.6667 906.49 68.5C899.99 77.3333 893.407 86.1667 886.74 95C880.24 103.667 874.157 111.833 868.49 119.5C862.99 127 858.574 133.333 855.24 138.5C851.907 143.667 850.24 146.917 850.24 148.25C850.24 149.25 850.824 150 851.99 150.5C852.99 151 854.324 151.25 855.99 151.25C859.657 151.25 863.657 150 867.99 147.5C872.49 144.833 876.907 141.583 881.24 137.75C885.74 133.75 889.824 129.75 893.49 125.75C897.324 121.583 900.324 118 902.49 115L904.49 116.5C902.157 119.5 899.074 123.083 895.24 127.25C891.407 131.417 887.157 135.583 882.49 139.75C877.824 143.917 872.99 147.417 867.99 150.25C863.157 152.917 858.49 154.25 853.99 154.25C850.824 154.25 848.324 153.583 846.49 152.25C844.49 151.083 843.49 149 843.49 146C843.49 143.333 845.074 139.25 848.24 133.75C851.407 128.083 855.49 121.583 860.49 114.25C865.657 106.917 871.24 99.1667 877.24 91C883.24 82.6667 889.157 74.5 894.99 66.5C900.99 58.3333 906.24 50.8333 910.74 44ZM883.24 72C881.574 72 880.74 71.5 880.74 70.5C880.74 69.6667 881.574 69.25 883.24 69.25H930.74C931.24 69.25 931.74 69.3333 932.24 69.5C932.907 69.6667 933.24 70 933.24 70.5C933.24 71.1667 932.907 71.5833 932.24 71.75C931.74 71.9167 931.24 72 930.74 72H883.24ZM952.244 44C953.744 44.6667 955.911 45 958.744 45C961.744 44.8333 964.077 44.5833 965.744 44.25C960.411 51.5833 954.494 59.6667 947.994 68.5C941.494 77.3333 934.911 86.1667 928.244 95C921.744 103.667 915.661 111.833 909.994 119.5C904.494 127 900.077 133.333 896.744 138.5C893.411 143.667 891.744 146.917 891.744 148.25C891.744 149.25 892.327 150 893.494 150.5C894.494 151 895.827 151.25 897.494 151.25C901.161 151.25 905.161 150 909.494 147.5C913.994 144.833 918.411 141.583 922.744 137.75C927.244 133.75 931.327 129.75 934.994 125.75C938.827 121.583 941.827 118 943.994 115L945.994 116.5C943.661 119.5 940.577 123.083 936.744 127.25C932.911 131.417 928.661 135.583 923.994 139.75C919.327 143.917 914.494 147.417 909.494 150.25C904.661 152.917 899.994 154.25 895.494 154.25C892.327 154.25 889.827 153.583 887.994 152.25C885.994 151.083 884.994 149 884.994 146C884.994 143.333 886.577 139.25 889.744 133.75C892.911 128.083 896.994 121.583 901.994 114.25C907.161 106.917 912.744 99.1667 918.744 91C924.744 82.6667 930.661 74.5 936.494 66.5C942.494 58.3333 947.744 50.8333 952.244 44ZM924.744 72C923.077 72 922.244 71.5 922.244 70.5C922.244 69.6667 923.077 69.25 924.744 69.25H972.244C972.744 69.25 973.244 69.3333 973.744 69.5C974.411 69.6667 974.744 70 974.744 70.5C974.744 71.1667 974.411 71.5833 973.744 71.75C973.244 71.9167 972.744 72 972.244 72H924.744Z"
              fill="white"
            />
          </svg>
