<svg width="372" height="174" viewBox="0 0 372 174" fill="none" xmlns="http://www.w3.org/2000/svg">
<g clip-path="url(#clip0_1287_168)">
<path d="M15.0829 1.78301C19.3055 1.78301 22.5779 2.88134 24.9 5.07087C27.2149 7.26041 28.3796 10.2202 28.3796 13.9431V76.0916C28.3796 76.4196 28.0509 76.5908 27.3864 76.5908H26.3933C25.8931 76.5908 25.1929 76.4268 24.2784 76.0916C23.3638 75.7635 22.9137 74.9362 22.9137 73.6096V13.936C22.9137 12.0317 22.335 10.4199 21.1703 9.10047C20.0129 7.78104 17.9837 7.11776 15.0829 7.11776C12.182 7.11776 10.0529 7.78104 8.9311 9.10047C7.80935 10.427 7.25205 12.0389 7.25205 13.936V160.307C7.25205 162.125 7.80935 163.701 8.9311 165.021C10.0529 166.347 12.1392 167.003 15.2043 167.003C18.2695 167.003 20.4201 166.305 21.4204 164.892C22.4136 163.487 22.9137 161.961 22.9137 160.299V100.761C22.9137 99.4418 23.371 98.6359 24.2784 98.3435C25.1858 98.0582 25.8931 97.9084 26.3933 97.9084H27.3864C28.0509 97.9084 28.3796 98.0297 28.3796 98.2793V160.178C28.3796 163.901 27.2364 166.832 24.9643 168.986C22.6851 171.133 19.4341 172.21 15.2115 172.21C10.9888 172.21 7.58786 171.133 5.27291 168.986C2.95081 166.839 1.79333 163.901 1.79333 160.178V13.936C1.79333 10.2131 2.95081 7.2604 5.27291 5.06374C7.58786 2.87421 10.8674 1.77588 15.09 1.77588L15.0829 1.78301Z" fill="#1CCAE1" stroke="#1CCAE1" stroke-width="5" stroke-linejoin="round"/>
<path d="M43.8912 14.0644C43.8912 12.6594 44.0984 11.233 44.5128 9.78518C44.9272 8.33738 45.6488 7.03935 46.6848 5.87683C47.7209 4.72145 49.0855 3.76576 50.786 3.02402C52.4865 2.28229 54.6157 1.9043 57.1879 1.9043C59.76 1.9043 61.8892 2.27516 63.5897 3.02402C65.2902 3.76576 66.6549 4.72145 67.6909 5.87683C68.7269 7.03935 69.4485 8.33738 69.8629 9.78518C70.2773 11.233 70.4846 12.6594 70.4846 14.0644V160.185C70.4846 161.262 70.3417 162.482 70.0487 163.844C69.7558 165.206 69.1342 166.511 68.1839 167.752C67.2336 168.993 65.8832 170.049 64.147 170.919C62.4037 171.789 60.0887 172.224 57.1879 172.224C54.287 172.224 52.0935 171.811 50.3502 170.983C48.6068 170.156 47.2636 169.122 46.3133 167.881C45.363 166.64 44.72 165.335 44.3842 163.972C44.0555 162.61 43.884 161.348 43.884 160.192V14.0644H43.8912ZM49.357 160.185C49.357 162.09 49.8929 163.701 50.9718 165.021C52.0507 166.347 54.1227 167.004 57.1879 167.004C60.253 167.004 62.3251 166.34 63.4039 165.021C64.4828 163.701 65.0187 162.09 65.0187 160.185V13.936C65.0187 12.0318 64.4757 10.4199 63.4039 9.10051C62.3251 7.78109 60.253 7.11781 57.1879 7.11781C54.1227 7.11781 51.9506 7.80248 50.9146 9.1647C49.8786 10.5269 49.3642 12.1245 49.3642 13.9432V160.192L49.357 160.185Z" fill="#1CCAE1" stroke="#1CCAE1" stroke-width="5" stroke-linejoin="round"/>
<path d="M112.347 169.614C112.347 170.191 112.054 170.484 111.475 170.484H110.353C109.439 170.484 108.674 170.256 108.053 169.799C107.431 169.343 107.038 168.665 106.874 167.752L91.2192 46.194V167.381C91.2192 168.458 90.8905 169.243 90.226 169.735C89.5615 170.234 88.7756 170.477 87.8682 170.477H86.625C86.0462 170.477 85.7533 170.184 85.7533 169.607V4.75698C85.7533 4.0937 86.082 3.76562 86.7464 3.76562H87.8682C89.8545 3.76562 90.9762 4.67852 91.2263 6.49719L106.881 127.563V6.74681C106.881 4.76411 108.038 3.77276 110.36 3.77276H111.354C112.018 3.77276 112.347 4.10083 112.347 4.76411V169.614Z" fill="#1CCAE1" stroke="#1CCAE1" stroke-width="5" stroke-linejoin="round"/>
<path d="M151.601 3.76562C152.015 3.76562 152.222 3.88687 152.222 4.13649V6.11919C152.222 7.27458 151.929 8.08763 151.351 8.53695C150.772 8.9934 149.986 9.22162 148.993 9.22162H140.669V168.494C140.669 169.821 140.048 170.477 138.804 170.477H137.061C135.818 170.477 135.196 169.813 135.196 168.494V9.22875H126.744C125.751 9.22875 124.965 9.00053 124.386 8.54408C123.807 8.08763 123.514 7.28171 123.514 6.12632V4.14362C123.514 3.894 123.721 3.77276 124.136 3.77276H151.601V3.76562Z" fill="#1CCAE1" stroke="#1CCAE1" stroke-width="5" stroke-linejoin="round"/>
<path d="M185.261 169.364C185.261 170.106 184.968 170.484 184.389 170.484H182.274C181.281 170.484 180.595 170.277 180.223 169.864C179.852 169.45 179.623 168.787 179.537 167.881L177.551 139.602H161.025L159.039 167.881C158.953 168.794 158.746 169.45 158.417 169.864C158.088 170.277 157.424 170.484 156.431 170.484H154.194C153.616 170.484 153.323 170.113 153.323 169.364L165.505 5.50603C165.583 4.51468 166.019 3.97978 166.812 3.89419C167.598 3.81574 168.406 3.77295 169.234 3.77295H169.485C170.563 3.77295 171.414 3.83714 172.035 3.95838C172.657 4.07963 173.007 4.60026 173.093 5.50603L185.268 169.364H185.261ZM161.404 134.011H177.187L169.356 23.2434L161.404 134.011Z" fill="#1CCAE1" stroke="#1CCAE1" stroke-width="5" stroke-linejoin="round"/>
<path d="M209.232 1.78301C213.454 1.78301 216.727 2.88134 219.049 5.07087C221.364 7.26041 222.528 10.2202 222.528 13.9431V76.0916C222.528 76.4196 222.2 76.5908 221.535 76.5908H220.542C220.042 76.5908 219.342 76.4268 218.427 76.0916C217.513 75.7635 217.063 74.9362 217.063 73.6096V13.936C217.063 12.0317 216.484 10.4199 215.319 9.10047C214.162 7.78104 212.133 7.11776 209.232 7.11776C206.331 7.11776 204.202 7.78104 203.08 9.10047C201.958 10.427 201.401 12.0389 201.401 13.936V160.307C201.401 162.125 201.958 163.701 203.08 165.021C204.202 166.347 206.288 167.003 209.353 167.003C212.418 167.003 214.569 166.305 215.569 164.892C216.562 163.487 217.063 161.961 217.063 160.299V100.761C217.063 99.4418 217.52 98.6359 218.427 98.3435C219.335 98.0582 220.042 97.9084 220.542 97.9084H221.535C222.2 97.9084 222.528 98.0297 222.528 98.2793V160.178C222.528 163.901 221.385 166.832 219.113 168.986C216.834 171.133 213.583 172.21 209.36 172.21C205.138 172.21 201.737 171.133 199.422 168.986C197.1 166.839 195.942 163.901 195.942 160.178V13.936C195.942 10.2131 197.1 7.2604 199.422 5.06374C201.737 2.87421 205.016 1.77588 209.239 1.77588L209.232 1.78301Z" fill="#1CCAE1" stroke="#1CCAE1" stroke-width="5" stroke-linejoin="round"/>
<path d="M262.025 3.76562C262.44 3.76562 262.647 3.88687 262.647 4.13649V6.11919C262.647 7.27458 262.354 8.08763 261.775 8.53695C261.197 8.9934 260.411 9.22162 259.418 9.22162H251.094V168.494C251.094 169.821 250.472 170.477 249.229 170.477H247.486C246.242 170.477 245.621 169.813 245.621 168.494V9.22875H237.168C236.175 9.22875 235.389 9.00053 234.811 8.54408C234.232 8.08763 233.939 7.28171 233.939 6.12632V4.14362C233.939 3.894 234.146 3.77276 234.56 3.77276H262.025V3.76562Z" fill="#1CCAE1" stroke="#1CCAE1" stroke-width="5" stroke-linejoin="round"/>
<path d="M300.394 41.8506V167.381C300.394 168.458 300.065 169.243 299.4 169.735C298.736 170.234 297.95 170.477 297.043 170.477H295.799C295.221 170.477 294.928 170.184 294.928 169.607V4.75698C294.928 4.17928 295.049 3.87261 295.299 3.82981C295.549 3.78702 296.128 3.76562 297.035 3.76562H299.522C300.515 3.76562 301.387 3.97245 302.13 4.38611C302.873 4.79977 303.287 5.46305 303.373 6.36881L313.69 150.757L323.879 6.36881C323.958 5.46305 324.393 4.79977 325.186 4.38611C325.972 3.97245 326.866 3.76562 327.859 3.76562H331.46C332.038 3.76562 332.331 4.0937 332.331 4.75698V169.607C332.331 170.184 332.081 170.477 331.588 170.477H330.345C329.431 170.477 328.645 170.227 327.987 169.735C327.323 169.236 326.994 168.451 326.994 167.381V41.8506L317.427 168.744C317.427 169.899 316.763 170.477 315.441 170.477H311.84C310.682 170.477 310.018 169.899 309.853 168.744L300.408 41.8506H300.394Z" fill="#1CCAE1" stroke="#1CCAE1" stroke-width="5" stroke-linejoin="round"/>
<path d="M369.592 3.76562C370.007 3.76562 370.214 3.88687 370.214 4.13649V6.11919C370.214 7.27458 369.921 8.08763 369.342 8.53695C368.763 8.9934 367.977 9.22162 366.984 9.22162H353.187V85.2561H368.971C369.385 85.2561 369.614 85.3774 369.657 85.627C369.699 85.8766 369.721 86.2047 369.721 86.6184V87.6097C369.721 88.7722 369.414 89.5781 368.792 90.0275C368.17 90.4839 367.363 90.7121 366.37 90.7121H353.195V165.014H366.991C367.985 165.014 368.771 165.242 369.349 165.698C369.928 166.155 370.221 166.961 370.221 168.116V170.099C370.221 170.348 370.014 170.47 369.599 170.47H350.087C348.929 170.47 348.243 170.427 348.036 170.348C347.829 170.27 347.729 169.935 347.729 169.357V4.75698C347.729 4.0937 348.057 3.76562 348.722 3.76562H369.599H369.592Z" fill="#1CCAE1" stroke="#1CCAE1" stroke-width="5" stroke-linejoin="round"/>
</g>
<defs>
<clipPath id="clip0_1287_168">
<rect width="372" height="174" fill="white"/>
</clipPath>
</defs>
</svg>
