<svg width="1317" height="252" viewBox="0 0 1317 252" fill="none" xmlns="http://www.w3.org/2000/svg">
<path d="M108.769 103.035C111.179 99.4902 113.489 96.5527 114.616 96.5527L114.683 96.5085C117.965 96.5748 121.248 96.6631 124.531 96.6963C125.647 96.7073 126.852 96.6079 126.951 95.1171C127.073 93.317 125.746 93.2065 124.431 93.1734C122.088 93.1182 119.734 93.063 117.391 93.0078C121.524 86.216 126.852 80.3299 131.781 74.1345C133.085 74.0351 133.749 73.4167 133.461 72.0473C142.005 61.037 151.09 50.4685 160.64 40.3085C171.902 28.3264 183.22 16.3553 197.523 7.76353C198.981 7.76353 200.164 7.08988 201.457 6.46041C212.786 0.894518 230.636 0.419651 239.744 11.7944C240.219 12.3907 240.838 13.484 242.054 12.5674C242.253 10.6459 241.026 9.47526 239.899 8.17214C236.439 4.20755 231.819 3.01486 226.956 1.44669C221.739 -0.242955 216.577 -0.309216 211.747 0.452781C207.072 1.18165 202.485 3.40138 197.721 4.53885C197.401 4.61615 197.224 5.26772 196.981 5.64319C187.664 9.64091 179.595 15.6044 172.079 22.2083C150.084 41.5233 131.715 64.1071 113.942 87.1768C110.151 92.0912 105.675 95.2054 99.1205 94.9624C101.309 95.6471 103.508 96.3318 105.697 97.0165C93.6162 113.836 81.5357 130.655 69.4551 147.463C49.3281 175.48 28.8696 201.101 0.0220947 220.78C18.0159 216.308 31.9754 202.415 44.1997 188.489C57.8166 172.962 70.483 156.651 82.8067 140.086C88.9741 131.792 95.042 123.443 101.099 115.073C102.127 113.648 105.553 107.784 108.792 103.024L108.769 103.035Z" fill="#33FA94"/>
<path d="M1136.85 52.4785C1136.85 52.7104 1136.8 52.9313 1136.79 53.1632C1136.93 52.8871 1136.99 52.5448 1137.08 52.2466C1136.97 52.3239 1136.85 52.4012 1136.85 52.4785Z" fill="#33FA94"/>
<path d="M1137.11 52.1141C1137.11 52.1141 1137.09 52.2024 1137.08 52.2356C1137.11 52.2135 1137.16 52.1803 1137.18 52.1583C1137.12 52.1251 1137.08 52.092 1137.11 52.1141Z" fill="#33FA94"/>
<path d="M544.886 22.7606C543.693 22.1532 542.267 21.8882 540.929 21.9986C538.31 22.2084 535.923 23.5336 533.668 24.903C511.397 38.4423 494.232 58.8615 478.637 79.7336C463.041 100.606 448.463 122.483 429.651 140.517C422.743 147.143 414.111 153.592 404.606 152.51C403.335 148.225 405.899 143.841 408.397 140.13C416.918 127.474 425.904 115.139 435.332 103.146C437.554 100.308 440.074 97.3258 443.577 96.4865C448.186 95.3822 453.547 98.2535 457.537 95.7024C457.891 94.1232 455.802 93.052 454.199 93.2508C452.585 93.4496 451.016 94.2889 449.424 93.9576C447.015 93.4606 445.898 90.4126 446.528 88.0272C447.999 82.4834 454.619 77.4145 457.692 72.5775C461.195 67.0447 465.418 59.734 466.103 53.1521C458.487 58.1216 453.669 68.9111 448.695 76.2991C443.168 84.5044 436.338 92.5109 426.998 95.7908C427.794 94.4435 430.137 95.3822 430.458 96.9062C430.778 98.4302 429.861 99.921 428.988 101.213C416.565 119.589 403.721 138.385 385.529 151.085C383.34 152.609 380.544 154.089 378.146 152.941C376.046 151.936 375.239 149.219 375.703 146.933C376.167 144.647 377.604 142.703 379.008 140.837C385.042 132.797 391.066 124.769 397.101 116.729C400.107 112.72 405.755 108.888 404.595 103.157C404.34 101.887 403.755 100.661 403.755 99.3578C403.755 98.7283 403.887 98.0878 403.71 97.4804C403.158 95.5589 398.715 95.9233 397.256 96.1883C394.791 96.6301 392.536 97.8448 390.414 99.1369C386.501 101.522 382.887 104.36 379.306 107.221C377.958 108.303 376.797 109.739 374.973 108.027C375.416 106.801 375.847 105.575 376.289 104.349C378.974 102.638 377.958 100.285 377.184 98.143C376.51 96.2767 374.797 96.089 372.94 95.9343C368.397 95.5478 365.579 98.3087 363.059 101.257C356.692 108.712 350.16 116.089 344.402 123.996C336.963 134.2 328.773 143.465 317.4 149.34C311.432 152.421 305.242 155.602 298.732 150.312C298.235 147.629 298.688 145.166 299.738 142.593C301.816 137.469 304.933 133.029 308.138 128.612C309.431 128.49 310.138 127.905 309.807 126.503C310.293 125.619 311.078 125.144 312.017 124.89C313.156 126.193 314.67 125.928 315.941 125.464C324.175 122.461 331.978 118.573 338.908 113.206C342.346 110.545 345.662 107.563 347.839 103.665C349.663 100.407 348.856 96.6963 345.96 96.2436C341.23 95.5036 336.377 95.2828 332.675 99.3689C326.518 102.251 321.335 106.492 316.361 111.02C307.751 118.872 300.887 128.104 294.775 137.955C293.117 138.22 292.145 139.479 290.962 140.484C287.215 143.675 272.913 157.8 267.287 151.847C265.795 150.268 265.596 147.794 266.226 145.707C266.856 143.62 268.193 141.842 269.509 140.108C279.788 126.514 290.056 112.919 300.335 99.3247C295.339 98.3308 291.106 102.848 288.022 106.9C277.909 120.175 268.459 134.542 255.848 145.641C252.023 149.009 247.702 152.134 242.684 153.007C241.833 153.15 240.926 153.228 240.164 152.83C238.207 151.825 238.705 148.921 239.589 146.911C247.481 128.987 263.264 115.813 273.488 99.1038C270.172 96.8289 265.983 100.285 263.54 103.477C256.898 112.168 250.741 121.279 243.325 129.319C235.908 137.358 227.022 144.404 216.611 147.772C221.706 140.517 226.79 133.228 231.896 126.282C234.273 123.046 246.795 101.611 250.078 101.611C251.99 101.611 252.896 100.683 252.709 98.7615L252.742 98.7173C254.366 98.5406 255.151 97.4031 253.902 96.4313C252.51 95.338 250.498 95.0509 249.713 97.6019C247.834 99.1922 245.955 100.771 244.076 102.362C242.717 102.251 241.125 102.505 241.192 100.319C241.236 98.7725 240.429 97.6129 239.114 96.8841C236.141 95.2607 228.326 96.7295 225.198 99.4572C220.225 101.765 215.771 104.868 211.57 108.358C201.214 116.961 193.577 127.75 186.713 139.158C181.717 142.527 176.898 146.182 171.681 149.175C165.724 152.576 159.446 155.701 152.848 150.213C152.472 148.413 152.571 146.624 152.947 144.846C154.229 144.459 154.572 143.653 154.063 142.449C154.207 141.941 154.351 141.433 154.494 140.925C155.754 140.638 156.473 140.02 155.821 138.639C157.523 135.912 159.225 133.173 160.938 130.445C164.265 125.122 171.184 125.089 177.296 122.494C185.696 118.927 193.345 113.593 199.534 106.878C201.999 104.206 204.198 99.8216 201.59 97.2927C200.02 95.7687 197.511 95.9123 195.367 96.354C180.91 99.3357 169.924 110.854 160.607 122.295C151.289 133.736 142.082 146.16 128.664 152.333C127.493 152.874 126.244 153.36 124.962 153.25C122.63 153.029 120.905 150.743 120.618 148.424C120.331 146.105 121.16 143.786 122.154 141.676C127.902 129.451 139.662 119.766 141.32 106.359C141.828 102.295 141.353 98.0326 142.834 94.2116C143.784 91.771 145.486 89.6065 145.906 87.0333C146.315 84.4492 144.503 81.2245 141.916 81.6221C138.744 82.119 138.7 86.5585 138.634 89.7721C138.446 98.132 132.378 105.111 126.266 110.832C120.154 116.552 113.345 122.273 110.836 130.257C120.607 120.705 130.079 110.832 139.209 100.672C139.739 117.557 117.689 127.563 115.578 144.338C115.158 147.629 115.688 151.262 117.976 153.658C121.458 157.303 127.592 156.728 132.013 154.288C136.423 151.847 139.861 147.96 144.094 145.221C144.834 144.746 145.652 144.282 146.525 144.349C148.802 144.514 149.278 147.551 149.963 149.727C153.942 162.316 170.09 153.316 176.876 149.407C178.755 148.324 180.391 146.303 182.347 145.983C185.608 145.442 182.546 150.113 185.365 150.511C186.039 151.582 186.713 152.642 187.387 153.714C190.239 157.49 193.831 156.143 197.368 155.149C199.147 154.652 200.894 152.786 202.684 155.116C204.121 157.358 180.988 183.553 178.998 186.104C173.87 192.675 168.62 199.179 163.591 205.839C159.324 211.493 148.084 225.109 149.311 231.923C149.653 233.8 149.079 235.413 147.841 236.815C147.752 237.71 147.675 238.593 147.586 239.488C148.073 240.139 148.029 241.365 149.355 241.122C152.14 225.54 167.526 209.77 176.677 197.545C188.47 181.819 200.905 166.579 213.958 151.88C210.841 154.321 219.086 151.074 219.418 150.909C223.618 148.877 227.608 145.122 231.653 142.659C232.88 141.919 233.897 139.092 236.141 141.323C235.013 145.762 232.869 150.301 237.489 154.144C240.009 157.501 243.192 155.966 246.132 155.127C252.432 153.338 256.389 147.971 261.761 144.735C261.617 148.346 260.954 152.134 264.867 154.465C265.143 156.265 266.591 155.922 267.751 156.011C272.957 156.408 277.234 154.067 281.534 151.538C286.353 148.711 289.79 144.04 295.018 141.82C294.941 145.177 294.609 148.567 296.809 151.505C298.025 155.061 301.009 155.757 304.236 156C312.89 156.629 319.268 151.648 325.866 147.242C336.742 139.987 343.595 129.098 351.641 119.247C356.759 112.974 361.434 106.304 367.458 100.793C368.828 99.5455 370.199 97.8559 372.332 98.7835C374.564 99.7443 372.929 101.843 373.327 103.367C373.128 103.93 373.072 104.603 372.719 105.056C361.688 119.556 350.713 134.089 339.561 148.512L337.184 151.582C336.93 151.913 336.654 152.289 336.665 152.709C336.676 153.206 337.085 153.592 337.505 153.846C339.273 154.939 341.661 154.487 343.374 153.316C345.087 152.145 346.292 150.378 347.463 148.667C356.681 135.205 366.949 122.35 379.03 111.318C382.666 108.005 386.535 105.023 390.436 102.03C392.757 100.252 395.366 98.6179 398.372 98.5295C400.428 98.4633 404.042 99.1259 402.086 102.152C393.365 115.691 380.367 126.127 372.133 139.964C370.63 142.482 369.27 145.199 369.104 148.137C368.939 151.074 370.221 154.244 372.851 155.547C375.073 156.651 377.737 156.22 380.135 155.569C387.198 153.647 393.763 149.915 399.035 144.835C397.455 149.616 401.854 154.796 406.827 155.624C411.801 156.452 416.775 154.1 420.864 151.14C424.954 148.192 428.59 144.559 433.055 142.217C429.717 146.337 432.359 153.239 437.266 155.249C442.34 157.336 447.38 155.028 451.458 151.947C454.221 149.859 459.217 143.035 463.085 147.485C464.732 149.373 464.511 151.958 466.49 153.736C468.468 155.514 471.342 156.044 473.851 155.746C477.321 155.326 480.449 153.504 483.467 151.737C474.503 169.837 456.896 181.819 439.908 192.752C422.92 203.685 405.081 215.093 395.167 232.696C393.862 235.004 392.68 237.732 393.542 240.239C394.404 242.746 398.339 244.016 399.731 241.741C397.444 242.238 395.377 239.764 395.399 237.434C395.421 235.104 396.836 233.027 398.295 231.194C401.036 227.716 404.086 224.491 407.225 221.366C422.102 206.589 439.3 194.144 457.979 184.624C443.622 206.932 424.699 226.203 403.169 241.719C417.593 237.754 429.673 227.848 439.786 216.838C449.9 205.827 458.499 193.481 468.833 182.68C485.964 164.779 507.44 151.571 525.179 134.266C526.694 132.786 528.318 130.776 527.611 128.777C515.132 140.097 502.654 151.405 490.176 162.725C488.076 164.636 485.169 166.668 482.638 165.364C499.139 142.858 516.083 120.672 532.828 98.3529C522.858 99.4351 516.779 109.396 511.231 117.745C505.008 127.088 497.603 135.635 489.236 143.123C483.489 148.269 476.459 153.161 468.778 152.399C466.987 147.021 470.601 141.477 474.028 136.961C483.522 124.426 493.005 111.892 502.499 99.3578C500.819 97.4473 497.714 99.1259 495.901 100.915C486.86 109.761 479.885 120.44 471.773 130.136C463.66 139.832 453.956 148.854 441.886 152.631C440.847 152.963 439.698 153.239 438.67 152.874C435.675 151.792 436.835 147.319 438.515 144.614C450.176 125.917 462.057 106.956 478.327 92.0912C500.565 71.7713 530.849 59.1266 545.87 33.0199C547.207 30.7008 548.423 27.9068 547.417 25.4221C546.931 24.2294 545.992 23.3459 544.842 22.7606H544.886ZM333.802 101.544C336.941 101.268 339.107 98.3639 342.49 98.5075C346.181 98.6621 346.988 99.7554 345.275 103.079C343.042 107.408 338.997 109.926 335.228 112.654C329.547 116.762 323.435 120.086 316.737 122.339C315.2 122.858 314.051 123.432 313.852 121.158C319.677 113.792 326.076 107 333.791 101.544H333.802ZM165.613 124.194C166.1 123.797 166.619 123.432 167.161 123.079C173.317 113.328 181.43 105.575 191.3 99.6008C191.455 99.6008 191.631 99.667 191.764 99.6228C194.571 98.7394 198.374 96.9945 199.998 99.4793C201.955 102.472 198.561 105.222 196.274 107.177C188.537 113.781 180.081 119.291 170.366 122.637C169.371 122.98 168.233 122.936 167.161 123.068C166.63 123.421 166.1 123.775 165.613 124.183V124.194ZM207.857 146.403C203.59 147.861 200.518 151.472 195.953 152.587C193.599 153.161 191.742 152.963 189.73 152.09C188.68 148.435 190.305 145.31 191.941 142.328C200.805 126.182 211.57 111.605 227.055 101.036C227.542 100.705 227.851 100.098 228.238 99.6228C229.697 100.252 230.902 99.4793 232.25 99.0596C237.533 97.3921 239.512 99.2363 238.506 104.703C238.285 105.896 237.202 106.889 237.688 108.248C232.261 118.518 224.336 126.988 217.506 136.243C214.72 140.02 211.449 143.377 207.868 146.414L207.857 146.403ZM264.844 150.191C264.867 150.511 264.911 150.831 264.966 151.163C264.922 150.842 264.867 150.511 264.844 150.191ZM492.242 141.003C491.679 141.985 491.17 143.001 490.662 144.017C491.17 143.001 491.69 141.985 492.242 141.003ZM543.483 32.4788C533.933 47.3985 520.88 58.5965 505.881 67.7184C500.477 71.0093 495.713 75.4488 489.347 77.0501C502.532 60.1978 515.453 43.1136 532.01 29.2431C534.972 27.9179 537.934 26.5927 540.896 25.2564C543.969 23.8649 545.284 24.8588 545.152 28.194C545.085 29.8726 544.345 31.1315 543.494 32.4567L543.483 32.4788Z" fill="#33FA94"/>
<path d="M841.574 129.451C840.877 128.755 839.363 129.484 838.556 130.301C830.41 138.485 822.044 146.866 811.555 151.703C808.957 152.907 805.354 153.647 803.652 151.339C802.602 149.914 802.823 147.927 803.365 146.237C804.426 142.924 806.448 140.02 808.471 137.192C829.99 107.11 853.842 78.7727 878.103 50.8549C871.007 50.6451 865.481 56.6417 860.993 62.1413C850.128 75.4707 839.264 88.8112 828.399 102.141C827.924 102.715 827.36 103.344 826.619 103.366C824.807 103.411 824.995 100.661 824.508 98.9159C824 97.0937 822.066 95.9563 820.187 95.8017C818.297 95.6471 816.451 96.2876 814.683 96.9833C802.348 101.842 791.339 110.015 783.116 120.417C777.59 127.408 773.268 135.425 766.714 141.466C761.718 146.071 755.606 149.351 749.228 151.726C746.708 152.664 744.023 153.481 741.37 153.04C738.717 152.598 736.164 150.511 736.043 147.827C735.987 146.612 736.429 145.431 736.883 144.315C739.248 138.473 742.387 132.952 746.178 127.927C746.808 127.088 747.493 126.237 748.455 125.807C749.416 125.365 750.511 125.409 751.561 125.365C756.678 125.111 761.342 122.505 765.785 119.965C772.936 115.879 780.375 111.528 784.818 104.581C786.465 102.008 787.15 97.7343 784.31 96.5968C783.503 96.2765 782.597 96.3207 781.734 96.4201C771.4 97.5023 762.05 103.234 754.49 110.357C746.93 117.48 740.873 126.005 734.396 134.111C731.809 137.336 729.146 140.528 726.084 143.31C721.663 147.341 716.435 150.478 710.798 152.51C708.322 153.404 704.542 153.36 704.178 150.754C704.078 150.069 704.288 149.373 704.509 148.722C706.377 143.178 709.107 137.932 712.556 133.217C716.048 128.446 720.768 124.47 723.641 119.258C725.211 116.409 726.162 113.56 723.288 110.887C722.017 107.232 718.148 110.423 716.07 108.237C719.707 104.493 724.095 102.251 728.549 100.02C731.633 98.4742 734.506 97.4803 737.579 99.8104C735.711 102.218 731.776 102.141 730.737 105.641C730.406 106.757 729.908 107.64 730.892 108.557C731.887 109.473 732.859 109.175 733.854 108.48C736.021 106.956 738.143 105.409 738.441 102.483C740.563 99.5896 739.756 96.387 736.595 96.1661C733.766 95.9673 730.958 95.6802 728.029 97.2042C723.199 99.711 718.546 102.439 714.258 105.719C712.688 106.922 711.484 107.552 709.837 106.182C714.578 100.164 719.353 94.1562 724.061 88.1044C725.996 85.6307 727.786 83.0465 730.826 81.7544C731.854 81.4452 733.003 81.3348 733.898 80.8047C751.284 70.5343 768.493 59.9878 781.613 44.273C785.271 39.8888 789.096 35.4162 791.151 29.9276C792.257 26.9901 790.742 23.6991 787.603 22.9482C785.769 22.5175 783.845 22.904 782.022 23.423C772.715 26.0955 764.536 32.9425 757.441 39.2814C750.057 45.8743 743.437 53.2513 737.17 60.8934C735.457 62.9806 733.766 65.0899 732.097 67.2102C730.804 68.8557 729.51 70.5012 728.217 72.1466C722.746 79.115 717.386 86.1718 711.904 93.1292C700.575 107.497 691.047 123.256 678.314 136.541C678.37 139.313 676.999 141.256 675.297 143.001C676.999 141.245 678.37 139.302 678.314 136.541C676.347 136.11 675.12 137.491 673.838 138.496C670.799 140.881 667.483 142.814 664.178 144.79C662.697 145.674 659.845 145.806 660.929 143.498C662.012 141.19 663.968 139.28 665.162 137.071C667.571 132.654 669.251 127.828 670.102 122.869C672.213 110.512 676.225 98.2312 683.741 88.1927C680.293 90.1143 677.751 93.2948 675.12 96.2324C664.753 107.828 651.777 116.762 638.679 125.166C635.817 126.999 632.822 128.965 631.296 131.991C630.324 133.935 630.047 136.176 628.975 138.065C627.925 139.92 626.212 141.29 624.488 142.548C619.923 145.906 615.049 148.843 609.942 151.317C607.776 152.366 605.422 153.36 603.046 153.029C601.896 152.874 600.758 152.366 600.05 151.449C598.503 149.429 599.664 146.535 600.901 144.304C610.44 127.154 622.576 111.583 635.353 96.6741C631.274 96.2324 627.483 98.7392 624.466 101.522C616.762 108.634 611.634 118.021 605.455 126.491C598.912 135.459 591.042 143.542 581.791 149.683C579.194 151.405 576.32 153.029 573.203 153.084C571.137 153.117 568.694 151.969 568.605 149.914C568.572 149.13 568.893 148.39 569.224 147.684C575.889 133.051 585.483 119.766 597.254 108.811C601.443 104.912 605.997 101.257 611.324 99.1368C613.325 98.3416 615.8 97.8336 617.48 99.1809C619.669 100.937 618.95 104.371 618.044 107.022C620.885 106.459 622.244 102.726 621.006 100.12C619.757 97.5134 616.685 96.1661 613.789 96.2103C610.893 96.2544 608.152 97.4361 605.577 98.7503C589.141 107.132 576.243 121.511 567.589 137.789C566.251 140.307 564.991 142.924 564.604 145.751C564.218 148.578 564.848 151.659 566.848 153.68C570.396 157.258 576.552 156.121 580.819 153.437C585.085 150.754 588.567 146.8 593.231 144.879C594.281 149.219 595.861 154.188 600.039 155.745C602.515 156.662 605.278 156.088 607.798 155.293C615.347 152.907 622.266 148.567 627.704 142.814C628.544 146.833 630.103 150.886 633.131 153.658C636.16 156.43 640.945 157.59 644.504 155.536C644.946 155.282 645.377 154.95 645.532 154.475C645.831 153.559 644.891 152.642 643.941 152.51C642.99 152.377 642.051 152.742 641.111 152.94C636.502 153.945 631.418 150.367 630.81 145.685C630.235 141.223 633.164 137.115 636.137 133.736C644.781 123.896 655.115 115.547 666.565 109.164C666.974 109.639 666.698 110.357 666.433 110.931C665.571 112.753 665.239 114.598 664.885 116.563C664.753 117.292 664.068 121.809 663.548 121.975C662.211 122.394 661.923 123.234 662.586 124.437C659.945 134.443 657.989 144.801 648.616 151.328C647.787 151.902 647.732 152.686 648.052 153.316C648.561 154.299 649.268 153.636 649.964 153.294C652.164 152.234 654.175 150.743 656.695 150.411C661.559 150.456 665.195 147.518 669.041 145.199C670.6 144.26 671.838 143.211 673.54 144.702C671.937 147.827 668.887 150.069 667.803 153.548C667.604 154.188 672.158 153.978 672.633 153.813C675.971 152.598 677.917 148.114 679.895 145.431C682.437 141.985 685.101 138.628 687.875 135.37C692.727 129.683 697.922 124.294 703.426 119.236C706.499 116.42 710.014 113.979 714.037 112.731C716.358 112.013 723.896 110.545 720.436 115.227C719.11 117.038 717.12 118.551 715.584 120.219C713.904 122.052 712.279 123.94 710.721 125.884C707.604 129.771 704.764 133.868 702.199 138.142C699.635 142.427 697.369 147.938 700.011 152.178C701.647 154.807 704.874 156.154 707.98 156.143C711.086 156.132 714.059 154.961 716.778 153.459C720.083 151.637 723.122 149.318 725.742 146.601C727.112 145.188 728.958 143.509 730.77 144.304C732.517 145.066 732.616 147.419 733.103 149.263C734.329 153.813 739.447 156.463 744.166 156.287C748.886 156.099 753.218 153.724 757.153 151.118C760.657 148.788 764.36 146.127 768.571 146.27C768.106 148.247 767.675 150.445 768.648 152.234C769.621 154.023 772.66 154.63 773.578 152.819C772.008 150.246 773.202 146.922 774.517 144.205C781.27 130.279 790.731 117.679 802.193 107.276C806.614 103.267 811.621 99.457 817.523 98.5073C818.871 98.2864 820.397 98.2754 821.458 99.1368C823.281 100.617 822.618 103.51 821.69 105.663C814.738 121.809 802.326 134.862 790.157 147.551C792.754 146.635 795.34 145.729 797.938 144.812C794.931 148.987 798.966 155.293 804.028 156.253C809.09 157.214 814.108 154.586 818.352 151.681C826.641 146.005 833.87 138.948 840.944 131.825C841.507 131.251 842.126 130.456 841.795 129.727C841.739 129.606 841.673 129.495 841.585 129.418L841.574 129.451ZM750.002 123.234C749.682 123.465 749.56 123.764 749.549 124.095C749.56 123.764 749.693 123.465 750.002 123.234C750.08 123.178 750.168 123.123 750.278 123.068C751.715 122.394 753.705 118.098 754.821 116.751C756.545 114.664 758.413 112.709 760.359 110.832C764.238 107.099 768.493 103.83 772.594 100.352C772.815 100.164 773.036 99.9871 773.29 99.8767C773.71 99.7 774.185 99.7331 774.639 99.711C775.678 99.6448 776.65 99.2251 777.645 98.938C778.629 98.6509 779.634 98.4963 780.651 98.4631C781.381 98.441 782.143 98.4963 782.773 98.8717C784.531 99.9209 783.47 102.295 782.619 103.543C780.043 107.353 776.507 110.213 772.749 112.687C765.796 117.27 758.933 122.14 750.267 123.079C750.168 123.123 750.068 123.178 749.991 123.245L750.002 123.234ZM770.848 33.2627C774.749 29.8614 779.093 26.9459 784 25.2231C784.884 24.9139 785.813 24.6378 786.741 24.7482C790.632 25.1789 788.543 30.3252 787.25 32.2578C781.414 41.0373 774.694 48.7787 766.548 55.4821C758.579 62.0419 749.903 67.674 741.182 73.1516C739.668 74.1013 738.286 75.1063 736.905 76.1664C735.7 77.1051 734.661 77.3481 733.567 76.045C733.279 75.7026 742.254 65.1009 743.094 64.0408C746.41 59.8774 749.759 55.7251 753.218 51.6721C757.805 46.294 762.724 41.1256 767.742 36.1561C768.748 35.1622 769.786 34.1904 770.848 33.2627ZM730.914 79.1592C730.748 79.6672 730.682 80.2194 730.704 80.8157C730.682 80.2194 730.759 79.6672 730.914 79.1592Z" fill="#33FA94"/>
<path d="M430.856 144.702C430.856 144.702 430.856 144.724 430.856 144.735L430.889 144.702C430.889 144.702 430.867 144.702 430.856 144.702Z" fill="#33FA94"/>
<path d="M1316.03 129.44C1315.11 128.446 1314.24 129.495 1313.64 130.014C1311.29 132.068 1309.16 134.387 1306.73 136.331C1301.14 140.793 1295.76 145.685 1288.07 146.215C1293.36 141.4 1296.3 135.172 1298.64 128.59C1301.54 120.384 1301.39 111.428 1304.9 103.322C1306.06 100.661 1308.22 98.397 1308.37 95.3048C1308.21 95.0839 1308.03 94.8852 1307.82 94.6974C1304.79 97.6129 1301.76 100.528 1298.73 103.444C1297.28 103.311 1296.51 104.416 1295.54 105.178C1288.41 110.777 1281.24 116.343 1274.14 121.997C1272.37 123.399 1269.96 124.239 1269.39 126.834C1263.95 127.706 1261.06 130.257 1260.02 135.415C1259.67 137.137 1258.96 138.584 1258.06 140.02C1256.08 140.086 1255.21 141.787 1253.92 142.836C1248.98 146.844 1244.18 150.931 1237.75 152.709C1233.51 153.879 1232.94 152.024 1233.44 148.821C1233.77 146.712 1234.61 144.691 1235.23 142.637C1236.26 141.091 1237.27 139.523 1238.34 137.999C1245.02 128.501 1253.33 120.197 1259.11 110.026C1262.72 106.779 1263.87 101.202 1261.29 98.0767C1258.65 94.8852 1255.22 95.5588 1251.96 97.0276C1248.71 98.4964 1245.81 100.584 1242.8 102.461C1239.36 104.603 1237.15 108.767 1232.46 108.866C1232.75 105.244 1236.7 101.909 1233.36 97.9884C1233.27 96.3539 1232.22 96.1441 1230.8 95.9785C1225.69 95.3932 1222.64 98.662 1219.83 101.964C1213.6 109.319 1207.75 117.005 1201.45 124.294C1197.11 129.319 1192.94 134.597 1186.53 137.48C1180.59 140.141 1179.22 139.567 1178.5 133.129C1181.9 128.314 1185.54 123.675 1188.25 118.408C1192.77 113.946 1193.8 108.016 1194.54 102.207C1194.83 99.9541 1193.04 96.9282 1190.58 96.4202C1185.43 95.349 1180.18 95.4152 1175.93 99.4351C1177.02 99.5013 1178.12 99.5565 1179.22 99.6228C1181.61 100.208 1183.81 99.1369 1186.09 98.8277C1191.02 98.154 1192.5 100.009 1191.59 104.879C1190.75 109.385 1189.21 113.471 1186.22 116.983C1179.53 118.993 1177.65 124.504 1176.37 130.434C1176.46 130.544 1176.53 130.677 1176.57 130.82C1176.61 130.964 1176.65 131.119 1176.68 131.284C1176.66 131.119 1176.62 130.964 1176.57 130.82C1176.53 130.677 1176.46 130.544 1176.37 130.434C1172.24 140.009 1164.59 146.193 1155.86 151.218C1152.86 152.94 1149.47 153.758 1145.92 152.852C1143.33 149.904 1144.3 146.602 1145.52 143.653C1152.61 126.646 1162.83 111.947 1177.98 100.981C1178.47 100.628 1178.81 100.076 1179.22 99.6228C1178.13 99.5565 1177.03 99.5013 1175.93 99.4351C1168 103.311 1161.39 108.844 1155.39 115.238C1149.69 121.312 1146.1 128.777 1141.22 135.392C1139.24 135.481 1138.26 137.049 1137.11 138.253C1132.78 142.803 1127.72 146.425 1122.43 149.738C1118.12 152.444 1113.5 154.155 1108.32 152.101C1106.77 148.357 1108.93 145.453 1110.65 142.538C1117.91 130.257 1126.78 119.181 1136.27 108.568C1140.16 104.217 1144.03 99.8326 1148.64 94.6312C1138.07 98.2645 1131.97 105.641 1125.44 112.444C1118.17 120.02 1113.01 129.241 1106.1 137.115C1104.66 137.115 1103.95 138.275 1103.04 139.081C1098.43 143.057 1093.77 147.01 1088.38 149.892C1084.57 151.924 1080.67 154.155 1076.03 152.245C1075.51 150.677 1075.71 149.119 1076.06 147.551C1077.11 147.286 1078.17 147.032 1077.02 145.663C1082.85 133.537 1091.77 123.51 1099.74 112.842C1100.98 112.665 1101.53 111.969 1101.36 110.721C1102.01 109.816 1102.67 108.921 1103.32 108.016C1104.63 107.905 1105.31 107.298 1104.99 105.907C1107.72 102.593 1109.79 98.7172 1113.26 96.0226C1117.85 97.5024 1122.57 96.4312 1127.21 96.6852C1128.36 96.7515 1129.5 96.4423 1129.52 94.9846C1129.55 93.1513 1128.11 93.2066 1126.87 93.1845C1124.52 93.1513 1122.15 92.9636 1119.82 93.2176C1116.9 93.5379 1116.87 91.9586 1117.23 89.9156C1118.89 87.4971 1120.54 85.0786 1122.2 82.6601C1123.54 82.4834 1124.08 81.7656 1123.7 80.4403C1128.55 71.5725 1136.06 63.9525 1136.78 53.1631C1136.75 53.2183 1136.72 53.2735 1136.69 53.3287C1128.45 64.4274 1120.06 75.4156 1111.99 86.6357C1108.57 91.3844 1105.29 95.7024 1098.52 94.4545C1098.25 94.4103 1097.87 94.9956 1097.48 95.36C1104.64 96.4312 1104.72 96.4975 1100.15 102.428C1091.47 113.714 1082.71 124.912 1073.98 136.154C1071.5 136.839 1069.84 138.827 1067.71 140.053C1063.67 142.383 1060.46 146.734 1054.9 145.597C1061.79 137.281 1066.01 127.75 1067.39 117.093C1068.19 110.986 1069.82 105.233 1072.69 99.7995C1076.11 96.0116 1078.65 91.7267 1080.22 86.8676C1075.91 89.6616 1072.63 93.2507 1070.36 97.7123C1070.77 97.646 1071.12 97.6571 1071.4 97.7344C1071.12 97.6571 1070.77 97.6571 1070.36 97.7123C1068.5 99.6117 1066.64 101.511 1064.77 103.411C1064.74 103.609 1064.72 103.819 1064.72 104.029C1064.72 103.819 1064.73 103.609 1064.77 103.411C1064.33 103.499 1063.77 103.455 1063.45 103.709C1056.04 109.794 1048.58 115.812 1040.74 121.367C1038.73 122.803 1035.86 123.72 1035.47 126.845C1035.57 127.209 1035.67 127.574 1035.77 127.949C1043.35 123.289 1050.14 117.557 1057.17 112.146C1059.15 110.633 1060.93 108.844 1063.38 108.06C1059.65 118.01 1058.33 128.689 1054.07 138.485C1053.18 140.539 1052.15 142.549 1051.19 144.57C1049.41 144.934 1049.36 146.171 1049.65 147.573C1047.16 149.175 1045.27 151.648 1042.3 152.543C1041.38 152.145 1040.51 152.41 1039.59 152.642C1030.78 154.939 1025.2 149.793 1027.07 141.113C1029.31 136.298 1034.09 133.129 1035.76 127.938C1035.66 127.574 1035.56 127.209 1035.46 126.834C1029.77 127.684 1027.24 130.125 1025.81 136.132C1024.56 136.574 1024.12 137.358 1024.82 138.584C1024.59 139.059 1024.36 139.534 1024.14 139.998C1019.34 143.123 1014.74 146.579 1009.72 149.285C1003.82 152.466 997.593 155.646 991.072 150.323C990.674 148.159 990.663 146.005 991.481 143.918C993.338 143.443 992.653 141.058 993.272 139.556C994.388 136.817 996.764 134.178 998.389 131.704C998.908 130.92 999.428 130.125 1000.1 129.473C1001.14 128.468 1002.14 125.818 1003.25 125.299C1004.79 124.57 1006.35 126.226 1008.27 125.475C1019.57 121.113 1030.23 115.757 1038.42 106.448C1040.58 103.996 1041.69 101.412 1040.67 98.3528C1039.79 95.7465 1037.31 96.0889 1035.08 95.9564C1031.81 95.7686 1028.72 95.6472 1027.88 99.8326C1026.39 98.5405 1025.14 99.5013 1023.73 100.142C1020.01 101.831 1016.78 104.239 1013.64 106.79C1002.87 115.536 994.355 126.215 987.148 137.977C984.175 138.882 982.363 141.356 980.141 143.244C976.328 146.48 972.548 150.08 967.773 151.461C960.091 153.691 959.318 155.127 958.577 147.098C959.893 142.858 962.589 139.401 965.01 135.79C972.868 124.106 982.285 113.637 990.796 102.461C991.581 101.434 993.36 100.23 992.1 98.905C990.873 97.6018 988.74 98.0325 987.259 98.8166C986.098 99.4351 985.258 100.738 984.407 101.843C974.78 114.311 965.165 126.801 955.56 139.28C953.714 138.993 953.327 140.737 952.355 141.621C946.375 146.966 941.136 153.603 931.852 153.084C930.979 150.577 931.498 148.258 932.482 145.84C936.151 136.861 942.429 129.639 948.265 122.118C953.526 115.327 958.975 108.656 964.347 101.953C965.043 101.081 965.96 100.042 965.474 99.0817C964.811 97.7675 963.219 98.3528 962.037 98.397C959.262 98.5074 958.235 100.915 956.809 102.693C948.099 113.538 940.186 125.001 930.824 135.326C924.679 137.767 920.213 142.769 914.532 145.939C912.709 146.955 911.095 148.103 908.906 147.341C909.548 146.425 910.2 145.497 910.841 144.581C912.145 144.437 912.908 143.885 912.41 142.427C913.482 140.969 914.554 139.512 915.626 138.054C916.931 137.899 917.605 137.292 917.218 135.9C918.279 134.454 919.351 132.996 920.412 131.549C928.569 120.44 937.831 108.126 946.419 96.5858C943.413 96.5306 940.407 97.9 938.472 100.197C937.445 101.423 935.952 103.068 934.615 102.196C934.007 101.798 933.808 101.025 933.521 100.363C932.305 97.5466 928.978 96.111 925.917 96.2545C922.855 96.3981 920.003 97.8006 917.329 99.3025C900.926 108.568 887.475 122.958 879.341 139.942C878.523 141.886 877.218 143.62 876.655 145.652C875.152 151.107 880.833 157.126 886.359 155.944C889.376 155.304 892.77 153.084 895.168 155.028C889.376 159.589 884.734 165.574 881.761 172.322C881.838 172.907 882.933 172.642 882.888 172.057C882.844 171.471 882.071 171.173 881.507 171.372C880.943 171.571 880.578 172.09 880.247 172.587C872.499 183.752 863.668 194.143 855.975 205.364C848.294 216.573 841.684 228.82 839.065 242.16C837.285 251.282 843.972 255.49 850.714 248.444C863.38 235.203 873.14 219.212 879.108 201.896C883.916 187.948 886.746 173.658 896.87 162.405C898.937 160.108 903.866 156.585 905.049 153.835C905.557 152.675 905.845 151.383 906.353 150.224C906.608 149.638 906.906 149.086 907.315 148.6C906.906 149.097 906.608 149.65 906.353 150.224C905.856 151.383 905.557 152.675 905.049 153.835C906.596 154.166 907.757 153.217 908.884 152.488C913.935 149.23 918.843 145.751 923.971 142.626C924.833 142.096 925.519 140.528 926.635 140.483C928.68 140.406 928.923 142.902 927.353 143.918C926.967 144.172 926.469 144.338 926.314 144.768C926.149 145.221 926.469 145.696 926.69 146.116C927.276 147.231 927.287 148.634 926.712 149.76C926.502 150.169 926.215 150.599 926.325 151.041C926.414 151.405 930.47 154.95 930.868 155.193C933.477 156.784 935.731 155.856 938.472 155.083C944.784 153.305 948.729 147.894 954.134 144.691C953.979 148.247 953.316 151.958 957.074 154.332C957.395 156.033 958.754 155.878 959.981 155.966C965.22 156.364 969.519 154.056 973.852 151.516C978.693 148.667 982.175 144.006 987.392 141.709C987.513 144.161 987.635 146.602 987.756 149.053C987.281 150.378 987.823 151.085 989.138 151.35L989.171 151.416C992.133 156.165 997.98 157.512 1003.88 154.961C1010.98 151.891 1017.8 148.357 1023.77 142.836C1025.64 154.696 1032.55 158.849 1042.41 154.663C1042.83 154.663 1043.25 154.674 1043.68 154.685C1045.42 155.127 1046.41 154.586 1046.4 152.675C1047.16 152.477 1047.94 152.289 1048.7 152.09C1050.69 153.272 1051.36 152.333 1051.44 150.423C1051.88 150.378 1052.33 150.334 1052.78 150.279C1053.64 151.052 1054.33 150.478 1055.23 150.202C1061.16 148.38 1065.52 143.587 1071.48 141.875C1069.12 148.302 1069.75 151.317 1074.06 154.31C1074.41 155.955 1075.76 155.856 1077 155.988C1081.74 156.474 1086.05 155.061 1089.94 152.62C1094.09 150.014 1098 146.977 1102 144.128C1103.67 146.458 1100.8 149.837 1104.28 151.306C1104.41 151.527 1104.49 151.759 1104.55 152.002C1104.4 153.912 1105.54 154.277 1107.13 154.166C1107.67 156.298 1109.47 155.878 1110.95 155.966C1119.68 156.507 1125.74 151.129 1132.14 146.469C1134.71 144.592 1136.5 141.544 1140.02 141.014L1139.61 144.47C1138.13 145.552 1138.14 146.635 1139.6 147.728C1139.74 148.6 1139.87 149.473 1140.02 150.345C1139.08 151.814 1140 152.079 1141.21 152.156C1142.12 152.83 1143.01 153.515 1143.92 154.188C1146.88 157.612 1150.41 156.066 1153.71 155.105C1161.6 152.819 1166.81 146.811 1172.25 141.223C1174.28 139.125 1175.91 138.021 1178.43 140.539C1180.31 142.416 1182.92 142.173 1185.05 141.201C1190.76 138.606 1195.8 135.094 1199.85 130.125C1207.43 120.815 1215.24 111.704 1223 102.538C1225.3 99.8326 1227.93 97.7123 1231.87 98.651C1231.99 101.423 1231.01 103.819 1229.35 105.984C1222.78 114.509 1216.19 123.024 1209.69 131.605C1204.28 138.75 1198.98 145.983 1193.41 153.46C1198.27 154.851 1201.21 153.857 1203.94 150.025C1211.61 139.236 1218.7 128.004 1227.81 118.297C1229.83 118.297 1230.69 116.597 1231.91 115.47C1237.76 110.059 1243.75 104.857 1250.38 100.407C1252.68 98.8608 1255.18 97.5245 1257.78 98.9491C1260.88 100.639 1257.57 103.157 1258.12 105.266C1250.51 114.057 1242.84 122.781 1235.33 131.649C1231.79 135.823 1228.84 140.417 1227.16 145.707C1226.09 149.108 1226.26 152.178 1229.66 154.321C1230.01 155.977 1231.37 155.856 1232.6 155.977C1237.67 156.463 1242.17 154.873 1246.25 152.046C1250.04 149.429 1253.71 146.624 1257.57 143.797C1260.47 157.601 1270.47 158.782 1280.87 152.532C1281.66 152.311 1282.44 152.09 1283.22 151.869C1284.47 152.156 1285.16 151.648 1285.34 150.4C1285.79 150.367 1286.25 150.334 1286.7 150.301C1287.12 150.456 1287.65 150.864 1287.96 150.743C1294.2 148.225 1299.9 144.768 1305.24 140.704C1308.86 137.966 1312.47 135.238 1315.52 131.848C1316.18 131.119 1316.81 130.235 1316.03 129.396V129.44ZM1006.2 121.18C1012.47 113.295 1019.36 106.061 1027.76 100.374C1030.15 100.451 1031.85 98.0546 1034.38 98.5516C1035.67 98.8056 1037.38 97.9442 1038.13 99.5897C1038.84 101.125 1038.26 102.56 1037.26 103.93C1034.09 108.325 1029.63 111.218 1025.26 114.189C1020.23 117.601 1014.87 120.373 1009.08 122.328C1007.57 122.836 1006.38 123.499 1006.19 121.169C1005.75 121.334 1005.4 121.555 1005.13 121.809C1005.41 121.555 1005.75 121.334 1006.19 121.169L1006.2 121.18ZM840.722 240.901C840.722 240.901 840.745 240.912 840.756 240.923C840.756 240.923 840.734 240.912 840.722 240.901ZM879.716 191.592C874.278 206.468 868.907 221.388 859.401 234.386C855.964 239.09 852.129 243.386 848.039 247.494C846.591 248.941 844.978 250.796 842.811 249.471C840.833 248.267 841.054 246.059 841.717 243.96C841.982 243.132 841.717 242.149 841.706 241.233C841.551 241.233 841.408 241.233 841.286 241.211C841.408 241.233 841.54 241.244 841.706 241.233C843.22 234.75 846.713 229.184 850.272 223.729C859.81 209.107 870.344 195.204 881.507 181.775C883.905 185.563 880.844 188.533 879.727 191.592H879.716ZM900.197 146.414C900.186 148.854 899.18 150.721 897.787 152.344C899.18 150.71 900.186 148.854 900.197 146.414C895.975 147.938 892.891 151.505 888.304 152.587C885.95 153.139 884.093 152.974 882.071 152.079C881.076 148.965 882.292 146.138 883.662 143.576C892.394 127.176 903.148 112.4 918.688 101.611C922.855 100.407 926.569 97.0938 931.377 99.0044C932.128 102.262 930.647 105.2 930.039 108.27C924.601 118.529 916.677 126.999 909.846 136.254C907.061 140.031 903.789 143.377 900.197 146.425V146.414ZM1228.97 114.498C1229.27 113.67 1229.61 112.853 1230.03 112.08C1229.62 112.853 1229.27 113.67 1228.97 114.498ZM1298.71 105.034C1298.69 104.813 1298.67 104.603 1298.67 104.383C1298.67 104.592 1298.7 104.813 1298.71 105.034ZM1278.7 151.218C1278.8 151.45 1278.94 151.637 1279.09 151.781C1278.93 151.637 1278.8 151.45 1278.7 151.218C1277.2 151.626 1275.71 152.002 1274.23 152.432C1265.29 155.061 1259.81 150.732 1260.59 141.654C1263.16 136.762 1267.92 133.338 1269.77 127.971C1278.77 122.891 1286.12 115.581 1294.52 109.683C1295.4 109.065 1296.38 108.601 1297.31 108.071C1293.92 118.695 1291.94 129.76 1287.42 140.02C1285.47 144.437 1283.11 148.645 1278.7 151.207V151.218Z" fill="#33FA94"/>
<path d="M1176.28 61.4345C1176.85 60.5731 1177.63 59.3915 1176.49 58.5191C1175.6 57.8344 1174.72 58.7731 1173.99 59.2811C1168.85 62.8812 1165.1 67.652 1161.98 73.4277C1168.14 70.722 1172.77 66.7354 1176.27 61.4456L1176.28 61.4345Z" fill="#33FA94"/>
<path d="M774.064 155.999C780.839 155.889 786.697 153.923 790.577 147.938C790.411 147.728 790.234 147.518 790.046 147.319C786.266 148.38 783.713 151.759 779.657 152.532C777.623 152.918 775.7 153.15 773.677 152.963C772.881 153.404 772.074 153.857 771.279 154.299C771.522 155.977 772.76 156.011 774.064 155.988V155.999Z" fill="#33FA94"/>
<path d="M430.867 144.735C430.867 144.735 430.9 144.735 430.911 144.735C430.911 144.724 430.911 144.713 430.9 144.702L430.867 144.735Z" fill="#33FA94"/>
<path d="M1309.83 93.8913C1312.97 92.1796 1314.33 89.3524 1314.71 85.8296C1312.26 88.0604 1308.99 89.496 1308.23 93.2066C1308.1 93.7036 1307.96 94.2116 1307.82 94.7085C1308.02 94.8962 1308.21 95.095 1308.36 95.3159C1309.25 95.2496 1309.63 94.6754 1309.82 93.9023L1309.83 93.8913Z" fill="#33FA94"/>
</svg>
