<svg width="266" height="193" viewBox="0 0 266 193" fill="none" xmlns="http://www.w3.org/2000/svg">
<g clip-path="url(#clip0_1290_378)">
<path d="M28.6844 8.65452C27.6343 7.3255 26.1421 6.24963 24.2234 5.419C22.3048 4.58836 19.7388 4.177 16.5332 4.177H3.07135C2.33707 4.177 1.97388 4.5409 1.97388 5.2766V187.993C1.97388 188.728 2.29759 189.092 2.93713 189.092H4.16883C5.26631 189.092 6.18219 188.792 6.91647 188.198C7.65075 187.605 8.01395 186.798 8.01395 185.793V107.231H16.5253C19.9125 107.231 22.2022 107.967 23.3944 109.43C24.5866 110.902 25.1788 112.69 25.1788 114.794V185.785C25.1788 186.798 25.542 187.597 26.2763 188.19C27.0106 188.792 27.9264 189.084 29.0239 189.084H30.1214C30.8557 189.084 31.2189 188.72 31.2189 187.985V114.786C31.2189 112.674 30.9188 110.704 30.3267 108.869C29.7266 107.033 28.5186 105.427 26.6868 104.051C28.6134 102.398 29.8451 100.27 30.3977 97.6511C30.9504 95.0406 31.2189 92.1294 31.2189 88.9176V17.7994C31.2189 16.241 31.061 14.6588 30.7373 13.0529C30.4135 11.447 29.7266 9.98354 28.6765 8.64661L28.6844 8.65452ZM25.1867 88.6644C25.1867 90.2229 25.1156 91.7417 24.9814 93.2052C24.8472 94.6767 24.5235 96.0057 24.0182 97.1923C23.5129 98.3868 22.7549 99.3519 21.7521 100.08C20.7415 100.815 19.3282 101.179 17.4965 101.179H8.02184V10.2367H16.5332C19.9204 10.2367 22.2101 10.9724 23.4023 12.4359C24.5945 13.9073 25.1867 15.6951 25.1867 17.7994V88.6565V88.6644Z" fill="#3285FF" stroke="#3285FF" stroke-width="5" stroke-linejoin="round"/>
<path d="M72.5361 4.177H49.4654C48.7311 4.177 48.3679 4.5409 48.3679 5.2766V187.858C48.3679 188.499 48.4785 188.871 48.7074 188.958C48.9364 189.053 49.6944 189.092 50.9734 189.092H72.5361C72.994 189.092 73.223 188.958 73.223 188.681V186.482C73.223 185.2 72.8993 184.306 72.2598 183.8C71.6202 183.294 70.7517 183.04 69.6542 183.04H54.4159V100.626H68.9752C70.0727 100.626 70.9649 100.372 71.6518 99.8661C72.3387 99.3599 72.6782 98.4659 72.6782 97.1844V96.0848C72.6782 95.626 72.6545 95.2621 72.6072 94.9852C72.5598 94.7083 72.3071 94.5738 71.8492 94.5738H54.408V10.2367H69.6463C70.7438 10.2367 71.6123 9.98354 72.2519 9.47724C72.8914 8.97095 73.2151 8.07703 73.2151 6.79548V4.59627C73.2151 4.3194 72.9861 4.18491 72.5282 4.18491L72.5361 4.177Z" fill="#3285FF" stroke="#3285FF" stroke-width="5" stroke-linejoin="round"/>
<path d="M103.147 1.97764C98.3861 1.97764 94.7226 3.1959 92.1645 5.62452C89.5984 8.05314 88.3193 11.3361 88.3193 15.4656C88.3193 25.6468 88.8878 35.298 90.0327 44.427C91.1775 53.5561 92.6145 62.432 94.3594 71.0469C96.0964 79.6697 97.9756 88.1738 99.9889 96.5672C102.002 104.961 103.881 113.488 105.618 122.159C107.355 130.829 108.8 139.729 109.945 148.85C111.09 157.979 111.658 167.63 111.658 177.811C111.658 179.828 111.058 181.577 109.874 183.04C108.682 184.512 106.44 185.239 103.147 185.239C99.8547 185.239 97.4702 184.504 96.278 183.04C95.0858 181.577 94.4936 179.828 94.4936 177.811V125.806C94.4936 124.342 93.9883 123.424 92.9856 123.053C91.975 122.689 91.2486 122.499 90.7906 122.499H89.551C88.8168 122.499 88.4536 122.681 88.4536 123.053V177.677C88.4536 181.806 89.7089 185.057 92.2276 187.447C94.7463 189.828 98.3861 191.022 103.147 191.022C107.908 191.022 111.406 189.828 113.924 187.447C116.443 185.065 117.699 181.806 117.699 177.677C117.699 167.408 117.122 157.567 115.985 148.161C114.84 138.763 113.395 129.634 111.658 120.782C109.921 111.93 108.042 103.244 106.029 94.7081C104.016 86.1803 102.136 77.6287 100.399 69.0455C98.6625 60.4702 97.2176 51.7604 96.0727 42.9002C94.9279 34.0481 94.3594 24.9032 94.3594 15.4497C94.3594 13.3376 94.9753 11.5497 96.2149 10.0862C97.4466 8.62272 99.7599 7.88701 103.147 7.88701C106.534 7.88701 108.682 8.62272 109.874 10.0862C111.066 11.5576 111.658 13.3455 111.658 15.4497V67.3209C111.658 68.7923 112.164 69.71 113.167 70.0739C114.177 70.4378 114.951 70.6276 115.504 70.6276H116.601C117.335 70.6276 117.699 70.4457 117.699 70.0739V15.4577C117.699 11.3282 116.435 8.05314 113.924 5.61661C111.406 3.18799 107.813 1.96973 103.147 1.96973V1.97764Z" fill="#3285FF" stroke="#3285FF" stroke-width="5" stroke-linejoin="round"/>
<path d="M162.727 4.177H161.629C160.532 4.177 159.616 4.47761 158.881 5.07092C158.147 5.67214 157.784 6.47114 157.784 7.47581V177.811C157.784 180.011 157.208 181.798 156.071 183.175C154.926 184.551 152.66 185.24 149.273 185.24C147.441 185.24 145.956 185.01 144.812 184.551C143.667 184.093 142.798 183.523 142.206 182.835C141.606 182.146 141.195 181.371 140.966 180.493C140.738 179.623 140.627 178.729 140.627 177.811V7.48372C140.627 6.47905 140.28 5.67214 139.601 5.07883C138.914 4.48552 138.021 4.18491 136.924 4.18491H135.684C134.95 4.18491 134.587 4.54881 134.587 5.28451V177.685C134.587 179.338 134.84 180.968 135.345 182.566C135.85 184.172 136.695 185.596 137.887 186.83C139.079 188.072 140.588 189.076 142.419 189.86C144.251 190.635 146.541 191.03 149.288 191.03C152.312 191.03 154.76 190.571 156.631 189.654C158.51 188.736 159.995 187.613 161.092 186.284C162.19 184.955 162.924 183.507 163.287 181.949C163.65 180.39 163.84 178.966 163.84 177.685V5.2766C163.84 4.5409 163.477 4.177 162.742 4.177H162.727Z" fill="#3285FF" stroke="#3285FF" stroke-width="5" stroke-linejoin="round"/>
<path d="M221.209 4.177H217.229C216.132 4.177 215.145 4.40642 214.276 4.86524C213.408 5.32407 212.926 6.05977 212.832 7.06445L201.573 167.219L190.171 7.06445C190.077 6.05977 189.619 5.32407 188.798 4.86524C187.976 4.40642 187.013 4.177 185.916 4.177H183.168C182.157 4.177 181.518 4.20073 181.249 4.2482C180.973 4.29566 180.839 4.63583 180.839 5.2766V188.127C180.839 188.768 181.163 189.092 181.802 189.092H183.176C184.179 189.092 185.055 188.815 185.781 188.269C186.516 187.716 186.879 186.845 186.879 185.659V46.4207L197.317 187.17C197.498 188.451 198.233 189.092 199.512 189.092H203.491C204.952 189.092 205.686 188.451 205.686 187.17L216.258 46.4207V185.659C216.258 186.853 216.621 187.724 217.356 188.269C218.09 188.823 218.958 189.092 219.961 189.092H221.335C221.888 189.092 222.156 188.776 222.156 188.127V5.2766C222.156 4.5409 221.832 4.177 221.193 4.177H221.209Z" fill="#3285FF" stroke="#3285FF" stroke-width="5" stroke-linejoin="round"/>
<path d="M263.339 4.177H240.269C239.534 4.177 239.171 4.5409 239.171 5.2766V187.858C239.171 188.499 239.282 188.871 239.511 188.958C239.74 189.053 240.498 189.092 241.777 189.092H263.339C263.797 189.092 264.026 188.958 264.026 188.681V186.482C264.026 185.2 263.703 184.306 263.063 183.8C262.423 183.294 261.555 183.04 260.457 183.04H245.219V100.626H259.778C260.876 100.626 261.768 100.372 262.455 99.8661C263.142 99.3599 263.481 98.4659 263.481 97.1844V96.0848C263.481 95.626 263.458 95.2621 263.41 94.9852C263.363 94.7083 263.11 94.5738 262.652 94.5738H245.211V10.2367H260.45C261.547 10.2367 262.416 9.98354 263.055 9.47724C263.695 8.97095 264.018 8.07703 264.018 6.79548V4.59627C264.018 4.3194 263.789 4.18491 263.331 4.18491L263.339 4.177Z" fill="#3285FF" stroke="#3285FF" stroke-width="5" stroke-linejoin="round"/>
</g>
<defs>
<clipPath id="clip0_1290_378">
<rect width="266" height="193" fill="white"/>
</clipPath>
</defs>
</svg>
