<svg width="429" height="186" viewBox="0 0 429 186" fill="none" xmlns="http://www.w3.org/2000/svg">
<g clip-path="url(#clip0_1290_368)">
<path d="M19.1243 2.55535C13.7052 2.55535 9.53522 3.90922 6.62346 6.60799C3.70271 9.31573 2.24683 13.0008 2.24683 17.681C2.24683 29.2203 2.89389 39.334 4.19699 48.0131C5.50009 56.6922 7.13571 64.7257 9.12183 72.1047C11.0989 79.4838 13.2378 86.5042 15.5295 93.157C17.8212 99.8097 19.9601 106.83 21.9372 114.209C23.9143 121.588 25.5589 129.649 26.862 138.382C28.1651 147.114 28.8122 157.246 28.8122 168.794C28.8122 171.081 28.1292 173.062 26.7811 174.721C25.4241 176.388 22.8718 177.213 19.1243 177.213C15.3767 177.213 12.6627 176.38 11.3056 174.721C9.94862 173.062 9.2746 171.081 9.2746 168.794V121.857C9.2746 120.198 8.69944 119.158 7.5581 118.737C6.40777 118.325 5.58098 118.109 5.05973 118.109H3.64879C2.813 118.109 2.3996 118.316 2.3996 118.737V168.642C2.3996 173.322 3.82853 177.007 6.69536 179.715C9.56219 182.414 13.7052 183.768 19.1243 183.768C24.5434 183.768 28.5246 182.414 31.3914 179.715C34.2583 177.016 35.6872 173.322 35.6872 168.642C35.6872 157.004 35.0311 146.684 33.737 137.691C32.4339 128.698 30.7893 120.378 28.8122 112.739C26.8351 105.1 24.6962 97.9 22.4045 91.1396C20.1128 84.3792 17.9739 77.3409 15.9968 70.0067C14.0197 62.6815 12.3751 54.8272 11.072 46.4619C9.76888 38.0966 9.12183 28.5568 9.12183 17.8424C9.12183 15.4485 9.82281 13.3953 11.2338 11.6828C12.6447 9.97025 15.2689 9.10951 19.1243 9.10951C22.9797 9.10951 25.4241 9.94335 26.7811 11.6021C28.1382 13.2697 28.8122 15.2961 28.8122 17.681V64.4657C28.8122 66.1334 29.3874 67.1734 30.5287 67.5859C31.67 67.9983 32.5597 68.2135 33.1888 68.2135H34.438C35.2738 68.2135 35.6872 68.0073 35.6872 67.5859V17.8334C35.6872 13.1532 34.2493 9.44125 31.3914 6.67972C28.5246 3.92715 24.4356 2.54639 19.1243 2.54639V2.55535Z" fill="#3285FF" stroke="#3285FF" stroke-width="5" stroke-linejoin="round"/>
<path d="M86.9396 4.73413H85.6904C84.4412 4.73413 83.3987 5.07484 82.5629 5.74729C81.7272 6.42871 81.3138 7.33428 81.3138 8.47296V168.776C81.3138 171.269 80.6577 173.295 79.3636 174.855C78.0605 176.415 75.4812 177.195 71.6258 177.195C69.5409 177.195 67.8513 176.935 66.5482 176.415C65.2451 175.895 64.2566 175.25 63.5825 174.47C62.8995 173.69 62.4322 172.811 62.1716 171.816C61.911 170.83 61.7852 169.816 61.7852 168.776V8.48193C61.7852 7.34324 61.3897 6.42871 60.6169 5.75626C59.835 5.08381 58.8195 4.7431 57.5703 4.7431H56.1593C55.3236 4.7431 54.9102 5.15553 54.9102 5.98937V168.633C54.9102 170.507 55.1977 172.354 55.7729 174.165C56.3481 175.985 57.3097 177.599 58.6667 178.998C60.0237 180.405 61.7402 181.544 63.8252 182.432C65.9102 183.31 68.5164 183.759 71.6438 183.759C75.0858 183.759 77.8718 183.239 80.0106 182.198C82.1495 181.158 83.8391 179.885 85.0883 178.379C86.3374 176.873 87.1732 175.232 87.5866 173.466C88 171.699 88.2157 170.085 88.2157 168.633V5.98041C88.2157 5.14657 87.8023 4.73413 86.9665 4.73413H86.9396Z" fill="#3285FF" stroke="#3285FF" stroke-width="5" stroke-linejoin="round"/>
<path d="M138.74 10.8937C137.644 9.27982 135.981 7.88112 133.734 6.67968C131.497 5.4872 128.396 4.88647 124.433 4.88647H109.119C108.284 4.88647 107.87 5.29891 107.87 6.13275V180.316C107.87 181.149 108.23 181.562 108.967 181.562H123.498C127.767 181.562 131.101 180.961 133.501 179.769C135.9 178.576 137.671 177.169 138.812 175.555C139.953 173.941 140.636 172.282 140.843 170.561C141.05 168.848 141.158 167.413 141.158 166.275V112.317C141.158 110.551 141.131 108.632 141.077 106.543C141.023 104.463 140.843 102.464 140.529 100.536C140.214 98.6172 139.666 96.824 138.884 95.1563C138.102 93.4976 136.979 92.2514 135.523 91.4175C136.979 90.5837 138.102 89.4719 138.884 88.0642C139.666 86.6566 140.214 85.1054 140.529 83.384C140.843 81.6625 141.023 79.7976 141.077 77.7712C141.131 75.7449 141.158 73.6379 141.158 71.4592V20.3349C141.158 19.1962 141.023 17.7348 140.771 15.9685C140.511 14.2022 139.837 12.5166 138.74 10.9027V10.8937ZM134.283 166.131C134.283 168.525 133.6 170.552 132.252 172.21C130.895 173.878 128.288 174.703 124.433 174.703H114.745V95.1743H125.529C127.821 95.1743 129.565 95.7481 130.769 96.8868C131.964 98.0344 132.827 99.4331 133.348 101.101C133.869 102.768 134.157 104.607 134.211 106.633C134.265 108.659 134.292 110.506 134.292 112.165V166.122L134.283 166.131ZM134.283 71.1633C134.283 72.9296 134.256 74.8035 134.202 76.776C134.148 78.7485 133.887 80.5686 133.42 82.2363C132.953 83.904 132.09 85.3027 130.841 86.4503C129.592 87.598 127.821 88.1628 125.529 88.1628H114.745V11.7544H124.433C128.288 11.7544 130.895 12.5883 132.252 14.247C133.609 15.9147 134.283 17.941 134.283 20.326V71.1633Z" fill="#3285FF" stroke="#3285FF" stroke-width="5" stroke-linejoin="round"/>
<path d="M177.555 2.55535C172.136 2.55535 167.966 3.90922 165.054 6.60799C162.133 9.31573 160.677 13.0008 160.677 17.681C160.677 29.2203 161.324 39.334 162.627 48.0131C163.931 56.6922 165.566 64.7257 167.552 72.1047C169.529 79.4838 171.668 86.5042 173.96 93.157C176.252 99.8097 178.39 106.83 180.368 114.209C182.345 121.588 183.989 129.649 185.292 138.382C186.596 147.114 187.243 157.246 187.243 168.794C187.243 171.081 186.56 173.062 185.212 174.721C183.855 176.388 181.302 177.213 177.555 177.213C173.807 177.213 171.093 176.38 169.736 174.721C168.379 173.062 167.705 171.081 167.705 168.794V121.857C167.705 120.198 167.13 119.158 165.989 118.737C164.838 118.325 164.011 118.109 163.49 118.109H162.079C161.243 118.109 160.83 118.316 160.83 118.737V168.642C160.83 173.322 162.259 177.007 165.126 179.715C167.993 182.414 172.136 183.768 177.555 183.768C182.974 183.768 186.955 182.414 189.822 179.715C192.689 177.016 194.118 173.322 194.118 168.642C194.118 157.004 193.462 146.684 192.167 137.691C190.864 128.698 189.22 120.378 187.243 112.739C185.265 105.1 183.127 97.9 180.835 91.1396C178.543 84.3792 176.404 77.3409 174.427 70.0067C172.45 62.6815 170.806 54.8272 169.502 46.4619C168.199 38.0966 167.552 28.5568 167.552 17.8424C167.552 15.4485 168.253 13.3953 169.664 11.6828C171.066 9.97025 173.699 9.10951 177.555 9.10951C181.41 9.10951 183.855 9.94335 185.212 11.6021C186.569 13.2697 187.243 15.2961 187.243 17.681V64.4657C187.243 66.1334 187.818 67.1734 188.959 67.5859C190.109 67.9983 190.99 68.2135 191.619 68.2135H192.868C193.704 68.2135 194.118 68.0073 194.118 67.5859V17.8334C194.118 13.1532 192.68 9.44125 189.822 6.67972C186.955 3.92715 182.866 2.54639 177.555 2.54639V2.55535Z" fill="#3285FF" stroke="#3285FF" stroke-width="5" stroke-linejoin="round"/>
<path d="M230.371 2.24139C225.06 2.24139 220.935 3.62215 218.023 6.37472C215.102 9.12729 213.646 12.8482 213.646 17.5284V168.633C213.646 173.313 215.102 176.998 218.023 179.706C220.944 182.405 225.105 183.758 230.524 183.758C235.943 183.758 239.924 182.405 242.791 179.706C245.658 177.007 247.087 173.313 247.087 168.633V105.79C247.087 105.476 246.673 105.324 245.837 105.324H244.588C243.959 105.324 243.078 105.503 241.928 105.871C240.778 106.238 240.212 107.251 240.212 108.91V168.794C240.212 170.874 239.583 172.793 238.333 174.568C237.084 176.335 234.478 177.222 230.515 177.222C226.551 177.222 224.026 176.388 222.624 174.73C221.222 173.071 220.512 171.089 220.512 168.803V17.5195C220.512 15.1256 221.213 13.0992 222.624 11.4405C224.035 9.78181 226.614 8.94797 230.362 8.94797C234.109 8.94797 236.563 9.78181 238.019 11.4405C239.475 13.1082 240.203 15.1345 240.203 17.5195V78.9636C240.203 80.6313 240.778 81.6713 241.919 82.0838C243.06 82.4962 243.95 82.7114 244.579 82.7114H245.828C246.664 82.7114 247.078 82.5052 247.078 82.0838V17.5195C247.078 12.8392 245.613 9.12729 242.701 6.36576C239.78 3.61319 235.664 2.23242 230.353 2.23242L230.371 2.24139Z" fill="#3285FF" stroke="#3285FF" stroke-width="5" stroke-linejoin="round"/>
<path d="M297.009 9.8089C295.814 8.3026 294.115 7.08323 291.931 6.1418C289.748 5.20933 286.827 4.73413 283.178 4.73413H267.864C267.029 4.73413 266.615 5.14657 266.615 5.98041V180.325C266.615 181.158 266.984 181.571 267.712 181.571H269.114C270.363 181.571 271.405 181.23 272.241 180.558C273.077 179.885 273.49 178.971 273.49 177.832V102.204H283.178C287.034 102.204 289.64 103.038 290.997 104.696C292.354 106.364 293.028 108.39 293.028 110.775V177.832C293.028 178.98 293.441 179.885 294.277 180.558C295.113 181.239 296.155 181.571 297.404 181.571H298.654C299.489 181.571 299.903 181.158 299.903 180.325V110.775C299.903 108.381 299.561 106.149 298.887 104.069C298.204 101.989 296.829 100.168 294.744 98.6083C296.937 96.7344 298.339 94.3226 298.968 91.3548C299.597 88.3871 299.903 85.0965 299.903 81.4563V20.1736C299.903 18.4073 299.723 16.6141 299.355 14.794C298.986 12.9739 298.204 11.3152 297.009 9.79993V9.8089ZM293.028 81.1515C293.028 82.9178 292.947 84.6393 292.794 86.298C292.641 87.9657 292.273 89.472 291.698 90.8169C291.123 92.1707 290.26 93.2646 289.118 94.0895C287.968 94.9233 286.36 95.3357 284.275 95.3357H273.49V11.6021H283.178C287.034 11.6021 289.64 12.4359 290.997 14.0947C292.354 15.7623 293.028 17.7886 293.028 20.1736V81.1425V81.1515Z" fill="#3285FF" stroke="#3285FF" stroke-width="5" stroke-linejoin="round"/>
<path d="M324.886 4.89551H323.476C322.226 4.89551 321.184 5.23622 320.348 5.90867C319.512 6.59009 319.099 7.49565 319.099 8.63434V179.078C319.099 180.746 319.881 181.571 321.444 181.571H323.637C325.201 181.571 325.983 180.737 325.983 179.078V6.14178C325.983 5.30794 325.614 4.89551 324.886 4.89551Z" fill="#3285FF" stroke="#3285FF" stroke-width="5" stroke-linejoin="round"/>
<path d="M376.373 10.8937C375.276 9.27982 373.614 7.88112 371.367 6.67968C369.129 5.4872 366.029 4.88647 362.065 4.88647H346.752C345.916 4.88647 345.502 5.29891 345.502 6.13275V180.316C345.502 181.149 345.871 181.562 346.599 181.562H361.131C365.399 181.562 368.734 180.961 371.133 179.769C373.533 178.576 375.303 177.169 376.444 175.555C377.595 173.941 378.269 172.282 378.475 170.561C378.682 168.848 378.79 167.413 378.79 166.275V112.317C378.79 110.551 378.763 108.632 378.709 106.543C378.655 104.463 378.475 102.464 378.161 100.536C377.846 98.6172 377.298 96.824 376.516 95.1563C375.734 93.4976 374.611 92.2514 373.155 91.4175C374.611 90.5837 375.734 89.4719 376.516 88.0642C377.298 86.6566 377.846 85.1054 378.161 83.384C378.475 81.6714 378.655 79.7976 378.709 77.7712C378.763 75.7449 378.79 73.6379 378.79 71.4592V20.3349C378.79 19.1962 378.655 17.7348 378.395 15.9685C378.134 14.2022 377.46 12.5166 376.364 10.9027L376.373 10.8937ZM371.915 166.131C371.915 168.525 371.232 170.552 369.884 172.21C368.527 173.878 365.921 174.703 362.065 174.703H352.377V95.1743H363.162C365.453 95.1743 367.197 95.7481 368.401 96.8868C369.596 98.0344 370.459 99.4331 370.98 101.101C371.502 102.768 371.789 104.607 371.843 106.633C371.897 108.659 371.924 110.506 371.924 112.165V166.122L371.915 166.131ZM371.915 71.1633C371.915 72.9296 371.888 74.8035 371.834 76.776C371.78 78.7485 371.52 80.5686 371.052 82.2363C370.585 83.904 369.722 85.3027 368.473 86.4503C367.224 87.598 365.453 88.1628 363.162 88.1628H352.377V11.7544H362.065C365.921 11.7544 368.527 12.5883 369.884 14.247C371.241 15.9147 371.915 17.941 371.915 20.326V71.1633Z" fill="#3285FF" stroke="#3285FF" stroke-width="5" stroke-linejoin="round"/>
<path d="M425.971 4.89551H401.275C400.026 4.89551 399.244 4.92241 398.93 4.9762C398.615 5.03 398.462 5.41554 398.462 6.14178V180.011C398.462 180.845 398.561 181.311 398.777 181.418C398.984 181.526 399.765 181.571 401.123 181.571H425.971C426.493 181.571 426.753 181.418 426.753 181.105V178.612C426.753 177.16 426.385 176.146 425.657 175.573C424.929 174.999 423.94 174.712 422.691 174.712H405.337V97.8372H416.436C417.371 97.8372 418.413 97.8641 419.564 97.9179C420.705 97.9717 421.748 97.9179 422.691 97.7655C423.626 97.6131 424.408 97.2455 425.037 96.6717C425.666 96.0978 425.971 95.1923 425.971 93.946V91.4534C425.971 91.1396 425.711 90.9872 425.19 90.9872H405.337V11.7545H422.691C423.94 11.7545 424.929 11.4676 425.657 10.8938C426.385 10.3199 426.753 9.30679 426.753 7.85429V5.36174C426.753 5.04793 426.493 4.89551 425.971 4.89551Z" fill="#3285FF" stroke="#3285FF" stroke-width="5" stroke-linejoin="round"/>
</g>
<defs>
<clipPath id="clip0_1290_368">
<rect width="429" height="186" fill="white"/>
</clipPath>
</defs>
</svg>
